<svg id="White_on_Blue" data-name="White on Blue" xmlns="http://www.w3.org/2000/svg" viewBox="0 0 412.57 412.79">
  <defs>
    <style>
      .cls-1 {
        fill: #fff;
      }
    </style>
  </defs>
  <g id="Logogramm">
    <polygon class="cls-1" points="27.5 72.32 126.45 72.32 126.45 48.12 27.5 48.12 27.5 18.93 3.31 18.93 3.31 101.51 27.5 101.51 27.5 72.32"/>
    <path class="cls-1" d="M267.82,217.34c18.23,0,31.58-16.87,31.58-53.46V144.71c0-36.95-13.35-53.47-31.58-53.47s-31.59,16.52-31.59,53.47v19.17C236.23,200.47,249.58,217.34,267.82,217.34Zm-12.31-72.63c0-20.08,4.29-28.95,12.31-28.95s12.3,8.87,12.3,29v19.17c0,20.07-4.29,29-12.3,29s-12.31-8.88-12.31-29Z" transform="translate(-91.35 -91.24)"/>
    <path class="cls-1" d="M330.88,174.18h10.91c18.59,0,30.31-14.21,30.31-41.37,0-27.35-11.84-39.78-30.31-39.78H311.61V215.56h19.27Zm0-56.65h7.43c10.1,0,14.52,5.33,14.52,15.28,0,12.25-4.42,16.87-14.52,16.87h-7.43Z" transform="translate(-91.35 -91.24)"/>
    <polygon class="cls-1" points="339.52 99.81 308.17 99.81 308.17 73.17 336.04 73.17 336.04 48.66 308.17 48.66 308.17 26.29 339.52 26.29 339.52 1.78 288.9 1.78 288.9 124.31 339.52 124.31 339.52 99.81"/>
    <polygon class="cls-1" points="394.46 70.51 364.74 1.78 349.41 1.78 349.41 124.31 367.53 124.31 367.53 56.47 397.01 124.31 412.57 124.31 412.57 1.78 394.46 1.78 394.46 70.51"/>
    <polygon class="cls-1" points="388.11 192.01 249.21 192.01 249.21 216.44 388.11 216.44 388.11 245.52 412.55 245.52 412.55 162.94 388.11 162.94 388.11 192.01"/>
    <path class="cls-1" d="M143.57,294.44c5.57-5.68,9.17-13,9.17-25.57,0-22.38-11-32.49-29.95-32.49h-28V358.91h30.54c21.36,0,29.95-15.62,29.95-35.17C155.29,308.65,150.89,300,143.57,294.44Zm-29.5-33.74h6.39c10.57,0,13,4.27,13,11.54,0,7.11-3.49,10.84-11.27,10.84h-8.13Zm9.18,73.7h-9.18V307.58h7.78c9.76,0,14.17,3.38,14.17,13.33C136,330,131.84,334.4,123.25,334.4Z" transform="translate(-91.35 -91.24)"/>
    <rect class="cls-1" x="75.57" y="145.13" width="19.27" height="122.53"/>
    <polygon class="cls-1" points="153.49 267.66 176.48 267.66 148.61 194.67 172.3 145.13 149.9 145.13 129.22 190.59 129.22 145.13 109.95 145.13 109.95 267.66 129.22 267.66 129.22 235.17 136.19 220.6 153.49 267.66"/>
    <polygon class="cls-1" points="235.84 169.63 235.84 145.13 185.21 145.13 185.21 267.66 235.84 267.66 235.84 243.16 204.48 243.16 204.48 216.51 232.35 216.51 232.35 192.01 204.48 192.01 204.48 169.63 235.84 169.63"/>
    <path class="cls-1" d="M127.34,428.91c-10.1-4.44-14.28-8.53-14.28-15.8,0-6.22,2.79-10.66,9.17-10.66,7.2,0,11.15,3,14.29,11.19L150.8,398c-5.69-13.5-16-20.06-28.8-20.06-19.5,0-28.22,15.09-28.22,35.33,0,19.72,7,31.09,23.23,39.07,11.85,5.86,15.09,9.42,15.09,16.52,0,5.86-2.9,10.66-10.33,10.66-7.2,0-12.08-3.38-16-11L91.35,484C98.89,498.53,108.77,504,123.4,504c18.23,0,28-14.38,28-36.58C151.38,446.49,144.76,436.55,127.34,428.91Z" transform="translate(-91.35 -91.24)"/>
    <polygon class="cls-1" points="70.5 411.01 121.12 411.01 121.12 386.51 89.77 386.51 89.77 359.87 117.64 359.87 117.64 335.35 89.77 335.35 89.77 312.99 121.12 312.99 121.12 288.47 70.5 288.47 70.5 411.01"/>
    <polygon class="cls-1" points="176.06 357.2 146.34 288.47 131.01 288.47 131.01 411.01 149.12 411.01 149.12 343.18 178.61 411.01 194.17 411.01 194.17 288.47 176.06 288.47 176.06 357.2"/>
    <path class="cls-1" d="M332,428.91c-10.1-4.44-14.28-8.53-14.28-15.8,0-6.22,2.79-10.66,9.17-10.66,7.19,0,11.15,3,14.28,11.19L355.44,398c-5.69-13.5-16-20.06-28.8-20.06-19.51,0-28.21,15.09-28.21,35.33,0,19.72,7,31.09,23.22,39.07,11.84,5.86,15.1,9.42,15.1,16.52,0,5.86-2.9,10.66-10.34,10.66-7.2,0-12.07-3.38-16-11L296,484c7.55,14.56,17.42,20.06,32,20.06,18.23,0,28-14.38,28-36.58C356,446.49,349.41,436.55,332,428.91Z" transform="translate(-91.35 -91.24)"/>
    <path class="cls-1" d="M396.33,378c-18.24,0-31.59,16.51-31.59,53.44v19.19c0,36.58,13.35,53.45,31.59,53.45s31.58-16.87,31.58-53.45V431.39C427.91,394.46,414.56,378,396.33,378Zm12.3,72.63c0,20.06-4.29,28.95-12.3,28.95S384,470.64,384,450.58V431.39c0-20.06,4.29-28.94,12.31-28.94s12.3,8.88,12.3,28.94Z" transform="translate(-91.35 -91.24)"/>
    <path class="cls-1" d="M500.61,418.26c0-25.58-11.84-38.54-30.3-38.54H440.12V502.26h19.27V455.91h10l13.36,46.35h21.13l-16-51.5C496,445.08,500.61,434.24,500.61,418.26ZM468,431.39h-8.59V404.23H468c7.78,0,13.36,2.31,13.36,14C481.34,429.8,475.76,431.39,468,431.39Z" transform="translate(-91.35 -91.24)"/>
  </g>
</svg>
