<?xml version="1.0" encoding="utf-8"?>
<!-- Generator: Adobe Illustrator 25.2.3, SVG Export Plug-In . SVG Version: 6.00 Build 0)  -->
<svg version="1.1" xmlns="http://www.w3.org/2000/svg" xmlns:xlink="http://www.w3.org/1999/xlink" x="0px" y="0px"
	 viewBox="0 0 595.28 595.28" style="enable-background:new 0 0 595.28 595.28;" xml:space="preserve">
<style type="text/css">
	.st0{display:none;}
	.st1{display:inline;fill:#FFFFFF;}
	.st2{fill:#FFFFFF;}
	.st3{display:inline;}
	.st4{fill:#1C1C1B;}
	.st5{fill:#D4C7A7;}
	.st6{fill:#0D3372;}
	.st7{fill:#114593;}
	.st8{display:none;fill:#114593;}
	.st9{display:inline;fill:none;stroke:#EEB50F;stroke-width:2.879;stroke-miterlimit:10;}
</style>
<metadata><?xpacket begin="﻿" id="W5M0MpCehiHzreSzNTczkc9d"?>
<x:xmpmeta xmlns:x="adobe:ns:meta/" x:xmptk="Adobe XMP Core 6.0-c004 79.164570, 2020/11/18-15:51:46        ">
   <rdf:RDF xmlns:rdf="http://www.w3.org/1999/02/22-rdf-syntax-ns#">
      <rdf:Description rdf:about=""
            xmlns:dc="http://purl.org/dc/elements/1.1/"
            xmlns:xmp="http://ns.adobe.com/xap/1.0/"
            xmlns:xmpGImg="http://ns.adobe.com/xap/1.0/g/img/"
            xmlns:xmpMM="http://ns.adobe.com/xap/1.0/mm/"
            xmlns:stRef="http://ns.adobe.com/xap/1.0/sType/ResourceRef#"
            xmlns:stEvt="http://ns.adobe.com/xap/1.0/sType/ResourceEvent#"
            xmlns:illustrator="http://ns.adobe.com/illustrator/1.0/"
            xmlns:xmpTPg="http://ns.adobe.com/xap/1.0/t/pg/"
            xmlns:stDim="http://ns.adobe.com/xap/1.0/sType/Dimensions#"
            xmlns:xmpG="http://ns.adobe.com/xap/1.0/g/"
            xmlns:pdf="http://ns.adobe.com/pdf/1.3/"
            xmlns:photoshop="http://ns.adobe.com/photoshop/1.0/"
            xmlns:xmpRights="http://ns.adobe.com/xap/1.0/rights/">
         <dc:format>image/svg+xml</dc:format>
         <dc:title>
            <rdf:Alt>
               <rdf:li xml:lang="x-default">OpenBikeSensor Logogramm / 210x210mm</rdf:li>
            </rdf:Alt>
         </dc:title>
         <dc:creator>
            <rdf:Seq>
               <rdf:li>Franziska Köppe | madiko</rdf:li>
            </rdf:Seq>
         </dc:creator>
         <dc:subject>
            <rdf:Bag>
               <rdf:li>Logo</rdf:li>
               <rdf:li>Logogramm</rdf:li>
               <rdf:li>Markenzeichen</rdf:li>
            </rdf:Bag>
         </dc:subject>
         <dc:rights>
            <rdf:Alt>
               <rdf:li xml:lang="x-default">(c) OpenBikeSensor</rdf:li>
            </rdf:Alt>
         </dc:rights>
         <xmp:CreatorTool>Adobe Illustrator 25.2 (Windows)</xmp:CreatorTool>
         <xmp:CreateDate>2021-06-07T13:25:50+02:00</xmp:CreateDate>
         <xmp:ModifyDate>2021-06-07T13:25:50+02:00</xmp:ModifyDate>
         <xmp:MetadataDate>2021-06-07T13:25:50+02:00</xmp:MetadataDate>
         <xmp:Thumbnails>
            <rdf:Alt>
               <rdf:li rdf:parseType="Resource">
                  <xmpGImg:width>256</xmpGImg:width>
                  <xmpGImg:height>256</xmpGImg:height>
                  <xmpGImg:format>JPEG</xmpGImg:format>
                  <xmpGImg:image>/9j/4AAQSkZJRgABAgEASABIAAD/7QAsUGhvdG9zaG9wIDMuMAA4QklNA+0AAAAAABAASAAAAAEA&#xA;AQBIAAAAAQAB/+4ADkFkb2JlAGTAAAAAAf/bAIQABgQEBAUEBgUFBgkGBQYJCwgGBggLDAoKCwoK&#xA;DBAMDAwMDAwQDA4PEA8ODBMTFBQTExwbGxscHx8fHx8fHx8fHwEHBwcNDA0YEBAYGhURFRofHx8f&#xA;Hx8fHx8fHx8fHx8fHx8fHx8fHx8fHx8fHx8fHx8fHx8fHx8fHx8fHx8fHx8f/8AAEQgBAAEAAwER&#xA;AAIRAQMRAf/EAaIAAAAHAQEBAQEAAAAAAAAAAAQFAwIGAQAHCAkKCwEAAgIDAQEBAQEAAAAAAAAA&#xA;AQACAwQFBgcICQoLEAACAQMDAgQCBgcDBAIGAnMBAgMRBAAFIRIxQVEGE2EicYEUMpGhBxWxQiPB&#xA;UtHhMxZi8CRygvElQzRTkqKyY3PCNUQnk6OzNhdUZHTD0uIIJoMJChgZhJRFRqS0VtNVKBry4/PE&#xA;1OT0ZXWFlaW1xdXl9WZ2hpamtsbW5vY3R1dnd4eXp7fH1+f3OEhYaHiImKi4yNjo+Ck5SVlpeYmZ&#xA;qbnJ2en5KjpKWmp6ipqqusra6voRAAICAQIDBQUEBQYECAMDbQEAAhEDBCESMUEFURNhIgZxgZEy&#xA;obHwFMHR4SNCFVJicvEzJDRDghaSUyWiY7LCB3PSNeJEgxdUkwgJChgZJjZFGidkdFU38qOzwygp&#xA;0+PzhJSktMTU5PRldYWVpbXF1eX1RlZmdoaWprbG1ub2R1dnd4eXp7fH1+f3OEhYaHiImKi4yNjo&#xA;+DlJWWl5iZmpucnZ6fkqOkpaanqKmqq6ytrq+v/aAAwDAQACEQMRAD8A9U4q7FXYq7FXYq7FXYq7&#xA;FXYq7FXYq7FXYq7FXYq7FXYq7FXYq7FXYq7FXYq7FXYq7FXYq7FXYq7FXYq7FXYq7FXYq7FXYq7F&#xA;XYq7FXYq7FXYq7FXYq7FXYq7FXYq7FXYq7FXYq7FXYq7FXYq7FXYq7FXYq7FXYq7FXYq7FXYq7FX&#xA;Yq7FXYq7FXYq7FXYq7FXYq7FXYq7FXYq7FXYq7FXYq7FXYq7FXYq7FXYq7FXYq7FXYq7FXYq7FXY&#xA;q7FXYq7FXYq7FXYq7FXYq7FXYq7FXYq7FXYq7FXYq7FXYq7FXYq7FXYq7FXYq7FXYq7FXYq7FXYq&#xA;7FXYq7FXYq7FXYq7FXYq7FXYq7FXYq7FXYq7FXYq7FXYq7FXYq7FXYq7FXYq7FXYq7FXYq7FXYq7&#xA;FXYq7FXYq7FXYq7FXYq7FXYq7FXYq7FXYq7FXYq7FXYq7FXYq7FXYq7FXYq7FXYq7FXYq7FXYq7F&#xA;XYq7FXYq7FXYq7FXYq7FXYq7FXYq7FXYq7FXYq7FXYq7FXYq7FXYq7FXYq7FXYq7FXYq7FXYq7FX&#xA;Yq7FXYq7FXYq7FXYq7FXYq7FXYq7FXYq7FXYq7FXYq7FXYq7FXYq7FXYq7FXYq7FXYq7FXYq7FXY&#xA;q7FXYq7FXYq7FXYq7FXYq7FXYq7FXYq7FXYq7FXYq7FXYq7FXYq7FXYq7FXYq7FXYq7FXYq7FXYq&#xA;7FXYq7FXYq7FXYq7FXYq7FXYq7FXYq7FXYq7FXYq7FXYq7FXYq7FXYq7FXYq7FXYq7FXYq7FXYq7&#xA;FXYq7FXYq7FXYq7FXYq7FXYq7FXYq7FXYq7FXYq7FXYq7FXYq7FXYq7FXYq7FXYq7FXYq7FXYq7F&#xA;XYq7FXYq7FXYq7FXYq7FXYq7FXYq7FXYq7FXYq7FXYq7FXYq7FXYq7FXYq7FXYq7FXYq7FXYq7FX&#xA;Yq7FXYq7FXYq7FXYq7FXYq7FXYq7FXYq7FXYq7FXYq7FXYq7FXYq7FXYq7FXYq7FXYq7FXYq7FXY&#xA;q7FXYq7FXYq7FXYq7FXYq7FXYq7FXYq7FXYq7FXYq7FXYq7FXYq7FXYq7FXYq7FXYq7FXYq7FXYq&#xA;7FXYq7FXYq7FXYq7FXYq7FXYq7FXYq7FXYq7FXYq7FXYq7FXYq7FXYq7FXYq7FXYq7FXYq7FXYq7&#xA;FXYq7FXYq7FXYq7FXYq7FXYq7FXYq7FXYq7FXYq7FXYq7FXYq7FXYq7FXYq7FXYq7FXYq7FXYq7F&#xA;XYq7FXYq7FXYq7FXYq7FXYq7FXYq7FXYq7FXYq7FXYq7FXYq7FXYq7FXYq7FXYq7FXYq7FXYq7FX&#xA;Yq7FXYq7FXYq7FXYq7FXYq7FXYq7FXYq7FXYq7FXYq7FXYq7FXYq7FXYq7FXYq7FXYq7FXYq7FXY&#xA;q7FXYq7FXYq7FXYq7FXYq7FXYq7FXYq7FXYq7FXYq7FXYq7FXYq7FXYq7FXYq7FXYq7FXYq7FXYq&#xA;7FXYq7FXYq7FXYq7FXYq7FXYq7FXYq7FXYq7FXYq7FXYq7FXYq7FXYq7FXYq7FXYq7FXYq7FXYq7&#xA;FXYq7FXYq7FXYq7FXYq7FXYq7FXYq7FXYq7FXYq7FXYq7FXYq7FXYq7FXYq7FXYq7FXYq7FXYq7F&#xA;XYq7FXYq7FXYq7FXYq7FXYq7FXYq7FXYq7FXYq7FXYq7FXYq7FXYq7FXYq7FXYq7FXYq7FXYq7FX&#xA;Yq7FXYq7FXYq7FXYq7FXYq7FXYq7FXYq7FXYq7FXYq7FXYq7FXYq7FXYq7FXYq7FXYq7FXYq7FXY&#xA;q7FXYq7FXYq7FXYq7FXYq7FXYq7FXYq7FXYq7FXYq7FXYq7FXYq7FXYq7FXYq7FXYq7FXYq7FXYq&#xA;7FXYq7FXYq7FXYq7FXYq7FXYq7FXYq7FXYq7FXYq7FXYq7FXYq7FXYq7FXYq7FXYq7FXYq7FXYq7&#xA;FXYq7FXYq7FXYq7FXYq7FXYq7FXYq7FXYq7FXYq7FXYq7FXYq7FXYq7FXYq7FXYq7FXYq7FXYq7F&#xA;XYq7FXYq7FXYq7FXYq7FXYq7FXYq7FXYq7FXYq7FXYq7FXYq7FXYq7FXYq7FXYq7FXYq7FXYq7FX&#xA;Yq7FXYq7FXYq7FXYq7FXYq7FXYq7FXYq7FXYq7FXYq7FXYq7FXYq7FXYq7FXYq7FXYq7FXYq7FXY&#xA;q7FXYq7FXYq7FXYq7FXYq7FXYq7FXYq7FXYq7FXYq7FXYq7FXYq7FXYq7FXYq7FXYq7FXYq7FXYq&#xA;7FXYq7FXYq7FXYq7FXYq7FXYq7FXYq7FXYq7FXYq7FXYq7FXYq7FXYq7FXYq7FXYq7FXYq7FXYq7&#xA;FXYq7FXYq7FXYq7FXYq7FXYq7FXYq7FXYq7FXYq7FXYq7FXYq7FXYq7FXYq7FXYq7FXYq7FXYq7F&#xA;XYq7FXYq7FXYq7FXYq7FXYq7FXYq7FXYq7FXYq7FXYq7FXYq7FXYq7FXYq7FXYq7FXYq7FXYq7FX&#xA;Yq7FXYq7FXYq7FXYq7FXYq7FXYq7FXYq7FXYq7FXYq7FXYq7FXYq7FXYq7FXYq7FXYq7FXYq7FXY&#xA;q7FXYq7FXYq7FXYq7FXYq7FXYq7FXYq7FX//2Q==</xmpGImg:image>
               </rdf:li>
            </rdf:Alt>
         </xmp:Thumbnails>
         <xmpMM:OriginalDocumentID>uuid:9E3E5C9A8C81DB118734DB58FDDE4BA7</xmpMM:OriginalDocumentID>
         <xmpMM:DocumentID>xmp.did:a222d7e8-410d-cd49-8332-4d1cadf749e0</xmpMM:DocumentID>
         <xmpMM:InstanceID>xmp.iid:a222d7e8-410d-cd49-8332-4d1cadf749e0</xmpMM:InstanceID>
         <xmpMM:RenditionClass>default</xmpMM:RenditionClass>
         <xmpMM:DerivedFrom rdf:parseType="Resource">
            <stRef:instanceID>uuid:158af604-cb3a-4aab-8885-728fa6acdb6b</stRef:instanceID>
            <stRef:documentID>xmp.did:08933dee-237f-624b-b65a-241985ae66d8</stRef:documentID>
            <stRef:originalDocumentID>uuid:9E3E5C9A8C81DB118734DB58FDDE4BA7</stRef:originalDocumentID>
            <stRef:renditionClass>default</stRef:renditionClass>
         </xmpMM:DerivedFrom>
         <xmpMM:History>
            <rdf:Seq>
               <rdf:li rdf:parseType="Resource">
                  <stEvt:action>saved</stEvt:action>
                  <stEvt:instanceID>xmp.iid:5cdd613c-2901-1c49-b30f-8f473ea4f146</stEvt:instanceID>
                  <stEvt:when>2021-03-18T22:23:21+01:00</stEvt:when>
                  <stEvt:softwareAgent>Adobe Illustrator 25.2 (Windows)</stEvt:softwareAgent>
                  <stEvt:changed>/</stEvt:changed>
               </rdf:li>
               <rdf:li rdf:parseType="Resource">
                  <stEvt:action>saved</stEvt:action>
                  <stEvt:instanceID>xmp.iid:a222d7e8-410d-cd49-8332-4d1cadf749e0</stEvt:instanceID>
                  <stEvt:when>2021-06-07T13:25:50+02:00</stEvt:when>
                  <stEvt:softwareAgent>Adobe Illustrator 25.2 (Windows)</stEvt:softwareAgent>
                  <stEvt:changed>/</stEvt:changed>
               </rdf:li>
            </rdf:Seq>
         </xmpMM:History>
         <illustrator:StartupProfile>Basic RGB</illustrator:StartupProfile>
         <illustrator:CreatorSubTool>Adobe Illustrator</illustrator:CreatorSubTool>
         <xmpTPg:NPages>1</xmpTPg:NPages>
         <xmpTPg:HasVisibleTransparency>False</xmpTPg:HasVisibleTransparency>
         <xmpTPg:HasVisibleOverprint>False</xmpTPg:HasVisibleOverprint>
         <xmpTPg:MaxPageSize rdf:parseType="Resource">
            <stDim:w>210.000000</stDim:w>
            <stDim:h>210.000000</stDim:h>
            <stDim:unit>Millimeters</stDim:unit>
         </xmpTPg:MaxPageSize>
         <xmpTPg:SwatchGroups>
            <rdf:Seq>
               <rdf:li rdf:parseType="Resource">
                  <xmpG:groupName>Standard-Farbfeldgruppe</xmpG:groupName>
                  <xmpG:groupType>0</xmpG:groupType>
                  <xmpG:Colorants>
                     <rdf:Seq>
                        <rdf:li rdf:parseType="Resource">
                           <xmpG:swatchName>Weiß</xmpG:swatchName>
                           <xmpG:mode>CMYK</xmpG:mode>
                           <xmpG:type>PROCESS</xmpG:type>
                           <xmpG:cyan>0.000000</xmpG:cyan>
                           <xmpG:magenta>0.000000</xmpG:magenta>
                           <xmpG:yellow>0.000000</xmpG:yellow>
                           <xmpG:black>0.000000</xmpG:black>
                        </rdf:li>
                        <rdf:li rdf:parseType="Resource">
                           <xmpG:swatchName>Schwarz</xmpG:swatchName>
                           <xmpG:mode>CMYK</xmpG:mode>
                           <xmpG:type>PROCESS</xmpG:type>
                           <xmpG:cyan>85.964751</xmpG:cyan>
                           <xmpG:magenta>85.015637</xmpG:magenta>
                           <xmpG:yellow>78.905922</xmpG:yellow>
                           <xmpG:black>100.000000</xmpG:black>
                        </rdf:li>
                        <rdf:li rdf:parseType="Resource">
                           <xmpG:swatchName>C=94 M=85 Y=44 K=59</xmpG:swatchName>
                           <xmpG:type>PROCESS</xmpG:type>
                           <xmpG:tint>100.000000</xmpG:tint>
                           <xmpG:mode>CMYK</xmpG:mode>
                           <xmpG:cyan>94.000000</xmpG:cyan>
                           <xmpG:magenta>85.000002</xmpG:magenta>
                           <xmpG:yellow>44.000000</xmpG:yellow>
                           <xmpG:black>58.999997</xmpG:black>
                        </rdf:li>
                        <rdf:li rdf:parseType="Resource">
                           <xmpG:swatchName>C=99 M=91 Y=19 K=9</xmpG:swatchName>
                           <xmpG:type>PROCESS</xmpG:type>
                           <xmpG:tint>100.000000</xmpG:tint>
                           <xmpG:mode>CMYK</xmpG:mode>
                           <xmpG:cyan>99.000001</xmpG:cyan>
                           <xmpG:magenta>91.000003</xmpG:magenta>
                           <xmpG:yellow>19.000000</xmpG:yellow>
                           <xmpG:black>9.000000</xmpG:black>
                        </rdf:li>
                        <rdf:li rdf:parseType="Resource">
                           <xmpG:swatchName>C=95 M=80 Y=1 K=0</xmpG:swatchName>
                           <xmpG:type>PROCESS</xmpG:type>
                           <xmpG:tint>100.000000</xmpG:tint>
                           <xmpG:mode>CMYK</xmpG:mode>
                           <xmpG:cyan>94.999999</xmpG:cyan>
                           <xmpG:magenta>80.000001</xmpG:magenta>
                           <xmpG:yellow>1.000000</xmpG:yellow>
                           <xmpG:black>0.000000</xmpG:black>
                        </rdf:li>
                        <rdf:li rdf:parseType="Resource">
                           <xmpG:swatchName>C=51 M=34 Y=12 K=0</xmpG:swatchName>
                           <xmpG:type>PROCESS</xmpG:type>
                           <xmpG:tint>100.000000</xmpG:tint>
                           <xmpG:mode>CMYK</xmpG:mode>
                           <xmpG:cyan>50.999999</xmpG:cyan>
                           <xmpG:magenta>34.000000</xmpG:magenta>
                           <xmpG:yellow>12.000000</xmpG:yellow>
                           <xmpG:black>0.000000</xmpG:black>
                        </rdf:li>
                        <rdf:li rdf:parseType="Resource">
                           <xmpG:swatchName>C=31 M=18 Y=8 K=0</xmpG:swatchName>
                           <xmpG:type>PROCESS</xmpG:type>
                           <xmpG:tint>100.000000</xmpG:tint>
                           <xmpG:mode>CMYK</xmpG:mode>
                           <xmpG:cyan>31.000000</xmpG:cyan>
                           <xmpG:magenta>18.000001</xmpG:magenta>
                           <xmpG:yellow>8.000000</xmpG:yellow>
                           <xmpG:black>0.000000</xmpG:black>
                        </rdf:li>
                        <rdf:li rdf:parseType="Resource">
                           <xmpG:swatchName>C=19 M=9 Y=3 K=0</xmpG:swatchName>
                           <xmpG:type>PROCESS</xmpG:type>
                           <xmpG:tint>100.000000</xmpG:tint>
                           <xmpG:mode>CMYK</xmpG:mode>
                           <xmpG:cyan>19.000000</xmpG:cyan>
                           <xmpG:magenta>9.000000</xmpG:magenta>
                           <xmpG:yellow>3.000000</xmpG:yellow>
                           <xmpG:black>0.000000</xmpG:black>
                        </rdf:li>
                        <rdf:li rdf:parseType="Resource">
                           <xmpG:swatchName>C=44 M=59 Y=100 K=36</xmpG:swatchName>
                           <xmpG:type>PROCESS</xmpG:type>
                           <xmpG:tint>100.000000</xmpG:tint>
                           <xmpG:mode>CMYK</xmpG:mode>
                           <xmpG:cyan>44.000000</xmpG:cyan>
                           <xmpG:magenta>58.999997</xmpG:magenta>
                           <xmpG:yellow>100.000000</xmpG:yellow>
                           <xmpG:black>36.000001</xmpG:black>
                        </rdf:li>
                        <rdf:li rdf:parseType="Resource">
                           <xmpG:swatchName>C=21 M=20 Y=37 K=0</xmpG:swatchName>
                           <xmpG:type>PROCESS</xmpG:type>
                           <xmpG:tint>100.000000</xmpG:tint>
                           <xmpG:mode>CMYK</xmpG:mode>
                           <xmpG:cyan>20.999999</xmpG:cyan>
                           <xmpG:magenta>20.000000</xmpG:magenta>
                           <xmpG:yellow>37.000000</xmpG:yellow>
                           <xmpG:black>0.000000</xmpG:black>
                        </rdf:li>
                        <rdf:li rdf:parseType="Resource">
                           <xmpG:swatchName>C=35 M=36 Y=53 K=1</xmpG:swatchName>
                           <xmpG:type>PROCESS</xmpG:type>
                           <xmpG:tint>100.000000</xmpG:tint>
                           <xmpG:mode>CMYK</xmpG:mode>
                           <xmpG:cyan>34.999999</xmpG:cyan>
                           <xmpG:magenta>36.000001</xmpG:magenta>
                           <xmpG:yellow>52.999997</xmpG:yellow>
                           <xmpG:black>1.000000</xmpG:black>
                        </rdf:li>
                        <rdf:li rdf:parseType="Resource">
                           <xmpG:swatchName>C=22 M=42 Y=98 K=2</xmpG:swatchName>
                           <xmpG:type>PROCESS</xmpG:type>
                           <xmpG:tint>100.000000</xmpG:tint>
                           <xmpG:mode>CMYK</xmpG:mode>
                           <xmpG:cyan>22.000000</xmpG:cyan>
                           <xmpG:magenta>41.999999</xmpG:magenta>
                           <xmpG:yellow>98.000002</xmpG:yellow>
                           <xmpG:black>2.000000</xmpG:black>
                        </rdf:li>
                        <rdf:li rdf:parseType="Resource">
                           <xmpG:swatchName>C=7 M=31 Y=94 K=0</xmpG:swatchName>
                           <xmpG:type>PROCESS</xmpG:type>
                           <xmpG:tint>100.000000</xmpG:tint>
                           <xmpG:mode>CMYK</xmpG:mode>
                           <xmpG:cyan>7.000000</xmpG:cyan>
                           <xmpG:magenta>31.000000</xmpG:magenta>
                           <xmpG:yellow>94.000000</xmpG:yellow>
                           <xmpG:black>0.000000</xmpG:black>
                        </rdf:li>
                     </rdf:Seq>
                  </xmpG:Colorants>
               </rdf:li>
               <rdf:li rdf:parseType="Resource">
                  <xmpG:groupName>Graustufen</xmpG:groupName>
                  <xmpG:groupType>1</xmpG:groupType>
                  <xmpG:Colorants>
                     <rdf:Seq>
                        <rdf:li rdf:parseType="Resource">
                           <xmpG:swatchName>R=0 G=0 B=0</xmpG:swatchName>
                           <xmpG:mode>CMYK</xmpG:mode>
                           <xmpG:type>PROCESS</xmpG:type>
                           <xmpG:cyan>85.964751</xmpG:cyan>
                           <xmpG:magenta>85.015637</xmpG:magenta>
                           <xmpG:yellow>78.905922</xmpG:yellow>
                           <xmpG:black>100.000000</xmpG:black>
                        </rdf:li>
                        <rdf:li rdf:parseType="Resource">
                           <xmpG:swatchName>R=26 G=26 B=26</xmpG:swatchName>
                           <xmpG:mode>CMYK</xmpG:mode>
                           <xmpG:type>PROCESS</xmpG:type>
                           <xmpG:cyan>76.418704</xmpG:cyan>
                           <xmpG:magenta>71.090251</xmpG:magenta>
                           <xmpG:yellow>66.726172</xmpG:yellow>
                           <xmpG:black>81.795985</xmpG:black>
                        </rdf:li>
                        <rdf:li rdf:parseType="Resource">
                           <xmpG:swatchName>R=51 G=51 B=51</xmpG:swatchName>
                           <xmpG:mode>CMYK</xmpG:mode>
                           <xmpG:type>PROCESS</xmpG:type>
                           <xmpG:cyan>71.975279</xmpG:cyan>
                           <xmpG:magenta>64.275575</xmpG:magenta>
                           <xmpG:yellow>60.354006</xmpG:yellow>
                           <xmpG:black>58.391696</xmpG:black>
                        </rdf:li>
                        <rdf:li rdf:parseType="Resource">
                           <xmpG:swatchName>R=77 G=77 B=77</xmpG:swatchName>
                           <xmpG:mode>CMYK</xmpG:mode>
                           <xmpG:type>PROCESS</xmpG:type>
                           <xmpG:cyan>67.125958</xmpG:cyan>
                           <xmpG:magenta>58.501559</xmpG:magenta>
                           <xmpG:yellow>54.579991</xmpG:yellow>
                           <xmpG:black>37.146562</xmpG:black>
                        </rdf:li>
                        <rdf:li rdf:parseType="Resource">
                           <xmpG:swatchName>R=102 G=102 B=102</xmpG:swatchName>
                           <xmpG:mode>CMYK</xmpG:mode>
                           <xmpG:type>PROCESS</xmpG:type>
                           <xmpG:cyan>61.629659</xmpG:cyan>
                           <xmpG:magenta>52.184325</xmpG:magenta>
                           <xmpG:yellow>48.633555</xmpG:yellow>
                           <xmpG:black>19.812313</xmpG:black>
                        </rdf:li>
                        <rdf:li rdf:parseType="Resource">
                           <xmpG:swatchName>R=128 G=128 B=128</xmpG:swatchName>
                           <xmpG:mode>CMYK</xmpG:mode>
                           <xmpG:type>PROCESS</xmpG:type>
                           <xmpG:cyan>54.518956</xmpG:cyan>
                           <xmpG:magenta>45.026320</xmpG:magenta>
                           <xmpG:yellow>41.654077</xmpG:yellow>
                           <xmpG:black>6.836042</xmpG:black>
                        </rdf:li>
                        <rdf:li rdf:parseType="Resource">
                           <xmpG:swatchName>R=153 G=153 B=153</xmpG:swatchName>
                           <xmpG:mode>CMYK</xmpG:mode>
                           <xmpG:type>PROCESS</xmpG:type>
                           <xmpG:cyan>46.588844</xmpG:cyan>
                           <xmpG:magenta>37.033644</xmpG:magenta>
                           <xmpG:yellow>34.570840</xmpG:yellow>
                           <xmpG:black>0.671397</xmpG:black>
                        </rdf:li>
                        <rdf:li rdf:parseType="Resource">
                           <xmpG:swatchName>R=179 G=179 B=179</xmpG:swatchName>
                           <xmpG:mode>CMYK</xmpG:mode>
                           <xmpG:type>PROCESS</xmpG:type>
                           <xmpG:cyan>34.872967</xmpG:cyan>
                           <xmpG:magenta>27.084762</xmpG:magenta>
                           <xmpG:yellow>25.201800</xmpG:yellow>
                           <xmpG:black>0.000000</xmpG:black>
                        </rdf:li>
                        <rdf:li rdf:parseType="Resource">
                           <xmpG:swatchName>R=204 G=204 B=204</xmpG:swatchName>
                           <xmpG:mode>CMYK</xmpG:mode>
                           <xmpG:type>PROCESS</xmpG:type>
                           <xmpG:cyan>23.959716</xmpG:cyan>
                           <xmpG:magenta>17.737086</xmpG:magenta>
                           <xmpG:yellow>17.138933</xmpG:yellow>
                           <xmpG:black>0.000000</xmpG:black>
                        </rdf:li>
                        <rdf:li rdf:parseType="Resource">
                           <xmpG:swatchName>R=230 G=230 B=230</xmpG:swatchName>
                           <xmpG:mode>CMYK</xmpG:mode>
                           <xmpG:type>PROCESS</xmpG:type>
                           <xmpG:cyan>12.021057</xmpG:cyan>
                           <xmpG:magenta>8.645762</xmpG:magenta>
                           <xmpG:yellow>8.032349</xmpG:yellow>
                           <xmpG:black>0.000000</xmpG:black>
                        </rdf:li>
                        <rdf:li rdf:parseType="Resource">
                           <xmpG:swatchName>R=242 G=242 B=242</xmpG:swatchName>
                           <xmpG:mode>CMYK</xmpG:mode>
                           <xmpG:type>PROCESS</xmpG:type>
                           <xmpG:cyan>5.835050</xmpG:cyan>
                           <xmpG:magenta>4.141298</xmpG:magenta>
                           <xmpG:yellow>3.961242</xmpG:yellow>
                           <xmpG:black>0.000000</xmpG:black>
                        </rdf:li>
                     </rdf:Seq>
                  </xmpG:Colorants>
               </rdf:li>
            </rdf:Seq>
         </xmpTPg:SwatchGroups>
         <pdf:Producer>Adobe PDF library 15.00</pdf:Producer>
         <photoshop:AuthorsPosition>OpenBikeSensor Logogramm</photoshop:AuthorsPosition>
         <photoshop:CaptionWriter>Franziska Köppe | madiko</photoshop:CaptionWriter>
         <xmpRights:Marked>True</xmpRights:Marked>
         <xmpRights:WebStatement>https://openbikesensor.org</xmpRights:WebStatement>
      </rdf:Description>
   </rdf:RDF>
</x:xmpmeta>
                                                                                                    
                                                                                                    
                                                                                                    
                                                                                                    
                                                                                                    
                                                                                                    
                                                                                                    
                                                                                                    
                                                                                                    
                                                                                                    
                                                                                                    
                                                                                                    
                                                                                                    
                                                                                                    
                                                                                                    
                                                                                                    
                                                                                                    
                                                                                                    
                                                                                                    
                                                                                                    
                           
<?xpacket end="w"?>
	</metadata>
<g id="Schwarz_auf_Weiß" class="st0">
	<g id="Hintergrund">
		<rect x="-8.5" y="-8.5" class="st1" width="612.28" height="612.28"/>
		<circle class="st2" cx="297.64" cy="297.64" r="294.09"/>
	</g>
	<g id="Ebene_28">
		<g class="st3">
			<polygon class="st4" points="118.65,163.41 217.71,163.41 217.71,139.18 118.65,139.18 118.65,109.96 94.42,109.96 94.42,192.64 
				118.65,192.64 			"/>
			<path class="st4" d="M267.79,217.25c18.25,0,31.62-16.89,31.62-53.52v-19.2c0-36.99-13.37-53.52-31.62-53.52
				c-18.26,0-31.63,16.54-31.63,53.52v19.2C236.16,200.36,249.52,217.25,267.79,217.25z M255.46,144.53
				c0-20.1,4.29-28.98,12.32-28.98c8.02,0,12.31,8.88,12.31,28.98v19.2c0,20.1-4.29,28.98-12.31,28.98
				c-8.03,0-12.32-8.88-12.32-28.98V144.53z"/>
			<path class="st4" d="M330.91,174.04h10.93c18.61,0,30.34-14.23,30.34-41.42c0-27.38-11.85-39.83-30.34-39.83h-30.22v122.67h19.29
				V174.04z M330.91,117.33h7.44c10.11,0,14.54,5.33,14.54,15.29c0,12.27-4.42,16.89-14.54,16.89h-7.44V117.33z"/>
			<polygon class="st4" points="431.03,190.93 399.63,190.93 399.63,164.26 427.54,164.26 427.54,139.73 399.63,139.73 
				399.63,117.33 431.03,117.33 431.03,92.8 380.34,92.8 380.34,215.46 431.03,215.46 			"/>
			<polygon class="st4" points="486.03,161.6 456.27,92.8 440.93,92.8 440.93,215.46 459.06,215.46 459.06,147.55 488.58,215.46 
				504.16,215.46 504.16,92.8 486.03,92.8 			"/>
			<polygon class="st4" points="479.67,283.24 340.61,283.24 340.61,307.7 479.67,307.7 479.67,336.81 504.13,336.81 504.13,254.13 
				479.67,254.13 			"/>
			<path class="st4" d="M143.39,294.44c5.58-5.69,9.18-12.98,9.18-25.61c0-22.4-11.05-32.53-29.99-32.53H94.57v122.67h30.58
				c21.39,0,29.99-15.64,29.99-35.2C155.13,308.66,150.72,299.95,143.39,294.44z M113.86,260.66h6.39
				c10.58,0,13.02,4.27,13.02,11.56c0,7.11-3.49,10.85-11.28,10.85h-8.14V260.66z M123.05,334.44h-9.18v-26.85h7.79
				c9.76,0,14.18,3.38,14.18,13.34C135.83,330,131.65,334.44,123.05,334.44z"/>
			<rect x="166.77" y="236.31" class="st4" width="19.29" height="122.67"/>
			<polygon class="st4" points="244.78,358.97 267.79,358.97 239.89,285.9 263.61,236.31 241.18,236.31 220.48,281.82 
				220.48,236.31 201.19,236.31 201.19,358.97 220.48,358.97 220.48,326.45 227.46,311.86 			"/>
			<polygon class="st4" points="327.22,260.84 327.22,236.31 276.54,236.31 276.54,358.97 327.22,358.97 327.22,334.44 
				295.83,334.44 295.83,307.77 323.73,307.77 323.73,283.24 295.83,283.24 295.83,260.84 			"/>
			<path class="st4" d="M127.15,429.06c-10.11-4.45-14.3-8.54-14.3-15.83c0-6.22,2.79-10.67,9.18-10.67c7.21,0,11.16,3.03,14.3,11.2
				l14.3-15.65c-5.7-13.51-16.04-20.08-28.83-20.08c-19.53,0-28.25,15.12-28.25,35.38c0,19.74,6.98,31.12,23.25,39.12
				c11.86,5.87,15.11,9.43,15.11,16.54c0,5.87-2.9,10.67-10.34,10.67c-7.21,0-12.09-3.38-16.04-11.02l-14.41,15.47
				c7.55,14.57,17.43,20.08,32.08,20.08c18.25,0,28.01-14.39,28.01-36.62C151.21,446.66,144.59,436.7,127.15,429.06z"/>
			<polygon class="st4" points="161.69,502.49 212.38,502.49 212.38,477.96 180.99,477.96 180.99,451.29 208.89,451.29 
				208.89,426.74 180.99,426.74 180.99,404.35 212.38,404.35 212.38,379.81 161.69,379.81 			"/>
			<polygon class="st4" points="267.38,448.61 237.62,379.81 222.28,379.81 222.28,502.49 240.41,502.49 240.41,434.57 
				269.93,502.49 285.51,502.49 285.51,379.81 267.38,379.81 			"/>
			<path class="st4" d="M332.03,429.06c-10.11-4.45-14.3-8.54-14.3-15.83c0-6.22,2.79-10.67,9.18-10.67c7.2,0,11.17,3.03,14.3,11.2
				l14.3-15.65c-5.7-13.51-16.04-20.08-28.84-20.08c-19.53,0-28.25,15.12-28.25,35.38c0,19.74,6.98,31.12,23.25,39.12
				c11.85,5.87,15.12,9.43,15.12,16.54c0,5.87-2.91,10.67-10.35,10.67c-7.22,0-12.09-3.38-16.04-11.02l-14.42,15.47
				c7.56,14.57,17.43,20.08,32.08,20.08c18.25,0,28.02-14.39,28.02-36.62C356.09,446.66,349.46,436.7,332.03,429.06z"/>
			<path class="st4" d="M396.45,378.04c-18.26,0-31.63,16.54-31.63,53.51v19.21c0,36.62,13.37,53.51,31.63,53.51
				c18.25,0,31.62-16.89,31.62-53.51v-19.21C428.06,394.57,414.7,378.04,396.45,378.04z M408.76,450.76
				c0,20.08-4.29,28.98-12.31,28.98c-8.03,0-12.32-8.89-12.32-28.98v-19.21c0-20.08,4.29-28.98,12.32-28.98
				c8.02,0,12.31,8.89,12.31,28.98V450.76z"/>
			<path class="st4" d="M500.84,418.39c0-25.61-11.85-38.58-30.34-38.58h-30.22v122.68h19.29v-46.4h9.99l13.38,46.4h21.15
				l-16.04-51.56C496.19,445.24,500.84,434.4,500.84,418.39z M468.17,431.55h-8.6v-27.19h8.6c7.79,0,13.38,2.31,13.38,14.04
				C481.55,429.95,475.97,431.55,468.17,431.55z"/>
		</g>
	</g>
</g>
<g id="Weiß_auf_Schwarz">
	<g id="Hintergrund_1_" class="st0">
		<rect x="-8.5" y="-8.5" class="st3" width="612.28" height="612.28"/>
		<circle cx="297.64" cy="297.64" r="294.09"/>
	</g>
	<g id="Ebene_26">
		<g>
			<polygon class="st2" points="118.85,163.56 217.81,163.56 217.81,139.36 118.85,139.36 118.85,110.17 94.66,110.17 94.66,192.76 
				118.85,192.76 			"/>
			<path class="st2" d="M267.82,217.34c18.23,0,31.58-16.87,31.58-53.46v-19.18c0-36.94-13.35-53.46-31.58-53.46
				c-18.24,0-31.59,16.52-31.59,53.46v19.18C236.23,200.47,249.58,217.34,267.82,217.34z M255.51,144.71
				c0-20.07,4.29-28.95,12.31-28.95c8.01,0,12.3,8.87,12.3,28.95v19.18c0,20.07-4.29,28.95-12.3,28.95
				c-8.02,0-12.31-8.87-12.31-28.95V144.71z"/>
			<path class="st2" d="M330.88,174.18h10.92c18.58,0,30.3-14.21,30.3-41.37c0-27.35-11.84-39.78-30.3-39.78h-30.19v122.53h19.27
				V174.18z M330.88,117.53h7.43c10.1,0,14.52,5.33,14.52,15.28c0,12.25-4.42,16.87-14.52,16.87h-7.43V117.53z"/>
			<polygon class="st2" points="430.88,191.05 399.52,191.05 399.52,164.41 427.39,164.41 427.39,139.91 399.52,139.91 
				399.52,117.53 430.88,117.53 430.88,93.03 380.25,93.03 380.25,215.56 430.88,215.56 			"/>
			<polygon class="st2" points="485.81,161.75 456.09,93.03 440.76,93.03 440.76,215.56 458.88,215.56 458.88,147.72 488.37,215.56 
				503.93,215.56 503.93,93.03 485.81,93.03 			"/>
			<polygon class="st2" points="479.46,283.26 340.56,283.26 340.56,307.69 479.46,307.69 479.46,336.76 503.9,336.76 503.9,254.18 
				479.46,254.18 			"/>
			<path class="st2" d="M143.57,294.44c5.57-5.68,9.17-12.96,9.17-25.58c0-22.38-11.03-32.49-29.96-32.49H94.8v122.53h30.54
				c21.37,0,29.96-15.62,29.96-35.16C155.29,308.65,150.89,299.95,143.57,294.44z M114.07,260.7h6.39
				c10.57,0,13.01,4.27,13.01,11.54c0,7.1-3.49,10.83-11.27,10.83h-8.13V260.7z M123.25,334.4h-9.17v-26.82h7.78
				c9.75,0,14.17,3.38,14.17,13.33C136.02,329.96,131.84,334.4,123.25,334.4z"/>
			<rect x="166.92" y="236.38" class="st2" width="19.27" height="122.53"/>
			<polygon class="st2" points="244.84,358.91 267.83,358.91 239.96,285.91 263.65,236.38 241.25,236.38 220.57,281.84 
				220.57,236.38 201.3,236.38 201.3,358.91 220.57,358.91 220.57,326.41 227.54,311.85 			"/>
			<polygon class="st2" points="327.19,260.88 327.19,236.38 276.56,236.38 276.56,358.91 327.19,358.91 327.19,334.4 295.83,334.4 
				295.83,307.76 323.7,307.76 323.7,283.26 295.83,283.26 295.83,260.88 			"/>
			<path class="st2" d="M127.34,428.91c-10.1-4.44-14.28-8.53-14.28-15.81c0-6.21,2.79-10.66,9.17-10.66
				c7.2,0,11.15,3.02,14.28,11.19l14.28-15.63c-5.69-13.49-16.03-20.06-28.8-20.06c-19.51,0-28.22,15.1-28.22,35.34
				c0,19.72,6.97,31.08,23.23,39.07c11.84,5.86,15.09,9.42,15.09,16.52c0,5.86-2.9,10.66-10.33,10.66c-7.2,0-12.08-3.38-16.03-11.01
				l-14.4,15.45c7.54,14.56,17.41,20.06,32.05,20.06c18.23,0,27.98-14.38,27.98-36.58C151.38,446.49,144.76,436.55,127.34,428.91z"
				/>
			<polygon class="st2" points="161.85,502.26 212.47,502.26 212.47,477.76 181.12,477.76 181.12,451.11 208.99,451.11 
				208.99,426.6 181.12,426.6 181.12,404.23 212.47,404.23 212.47,379.72 161.85,379.72 			"/>
			<polygon class="st2" points="267.41,448.44 237.69,379.72 222.36,379.72 222.36,502.26 240.47,502.26 240.47,434.42 
				269.96,502.26 285.52,502.26 285.52,379.72 267.41,379.72 			"/>
			<path class="st2" d="M331.99,428.91c-10.1-4.44-14.28-8.53-14.28-15.81c0-6.21,2.79-10.66,9.17-10.66
				c7.2,0,11.15,3.02,14.28,11.19l14.28-15.63c-5.69-13.49-16.02-20.06-28.8-20.06c-19.51,0-28.21,15.1-28.21,35.34
				c0,19.72,6.97,31.08,23.23,39.07c11.84,5.86,15.1,9.42,15.1,16.52c0,5.86-2.91,10.66-10.34,10.66c-7.21,0-12.07-3.38-16.02-11.01
				l-14.4,15.45c7.55,14.56,17.41,20.06,32.04,20.06c18.23,0,27.99-14.38,27.99-36.58C356.02,446.49,349.41,436.55,331.99,428.91z"
				/>
			<path class="st2" d="M396.33,377.95c-18.24,0-31.59,16.52-31.59,53.45v19.19c0,36.58,13.35,53.45,31.59,53.45
				c18.23,0,31.58-16.87,31.58-53.45v-19.19C427.91,394.46,414.56,377.95,396.33,377.95z M408.63,450.58
				c0,20.06-4.29,28.95-12.3,28.95c-8.02,0-12.31-8.88-12.31-28.95v-19.19c0-20.06,4.29-28.95,12.31-28.95
				c8.01,0,12.3,8.88,12.3,28.95V450.58z"/>
			<path class="st2" d="M500.61,418.26c0-25.58-11.84-38.54-30.3-38.54h-30.19v122.54h19.27v-46.35h9.98l13.36,46.35h21.12
				l-16.02-51.5C495.97,445.08,500.61,434.24,500.61,418.26z M467.98,431.39h-8.59v-27.16h8.59c7.79,0,13.36,2.3,13.36,14.02
				C481.34,429.8,475.76,431.39,467.98,431.39z"/>
		</g>
	</g>
</g>
<g id="Dunkelblau_auf_Beige" class="st0">
	<g id="Hintergrund_3_" class="st3">
		<rect x="-8.5" y="-8.5" class="st5" width="612.28" height="612.28"/>
		<circle class="st2" cx="297.64" cy="297.64" r="294.09"/>
	</g>
	<g id="Pfade_4_" class="st3">
		<g id="SENSOR_5_">
			<path class="st6" d="M146.26,464.01c0,9.55-2.07,16.87-6.21,21.94c-4.14,5.08-10.12,7.62-17.92,7.62
				c-7.65,0-14.15-1.75-19.51-5.24v-18.8c6.56,4.99,12.59,7.48,18.07,7.48c3.12,0,5.47-1,7.05-3.01c1.58-2,2.37-4.73,2.37-8.18
				c0-3.4-0.94-6.51-2.82-9.33c-1.88-2.82-4.98-5.95-9.31-9.4c-3.76-3.03-6.61-5.93-8.56-8.7c-1.94-2.77-3.44-5.88-4.5-9.33
				c-1.06-3.45-1.59-7.45-1.59-12.02c0-8.76,2.09-15.7,6.27-20.83c4.18-5.12,9.8-7.69,16.84-7.69c6.72,0,13.19,2.19,19.39,6.57
				l-5.4,15.23c-1.92-1.3-3.93-2.47-6.03-3.49c-2.1-1.02-4.35-1.54-6.76-1.54c-2.64,0-4.67,1.01-6.09,3.04
				c-1.42,2.03-2.13,4.79-2.13,8.28c0,3.45,0.85,6.45,2.55,9.02c1.7,2.56,4.67,5.47,8.92,8.74c5.72,4.47,9.72,9.04,11.98,13.7
				C145.13,452.74,146.26,458.05,146.26,464.01z"/>
			<path class="st6" d="M202.29,492.17h-39.57V390h39.57v16.42h-23.24v24.32h21.55v16.49h-21.55v28.3h23.24V492.17z"/>
			<path class="st6" d="M282.22,492.17h-19.93l-27.14-74.01h-0.78c1,5.64,1.5,11.69,1.5,18.17v55.84h-15.13V390h20.05l26.9,73.24
				h0.66c-0.76-4.89-1.14-10.72-1.14-17.47V390h15.01V492.17z"/>
			<path class="st6" d="M343.35,464.01c0,9.55-2.07,16.87-6.21,21.94c-4.14,5.08-10.12,7.62-17.92,7.62
				c-7.65,0-14.15-1.75-19.51-5.24v-18.8c6.57,4.99,12.59,7.48,18.07,7.48c3.12,0,5.47-1,7.05-3.01c1.58-2,2.37-4.73,2.37-8.18
				c0-3.4-0.94-6.51-2.82-9.33c-1.88-2.82-4.98-5.95-9.31-9.4c-3.76-3.03-6.62-5.93-8.56-8.7c-1.94-2.77-3.44-5.88-4.5-9.33
				c-1.06-3.45-1.59-7.45-1.59-12.02c0-8.76,2.09-15.7,6.27-20.83c4.18-5.12,9.8-7.69,16.84-7.69c6.72,0,13.19,2.19,19.39,6.57
				l-5.4,15.23c-1.92-1.3-3.93-2.47-6.03-3.49s-4.35-1.54-6.76-1.54c-2.64,0-4.67,1.01-6.09,3.04c-1.42,2.03-2.13,4.79-2.13,8.28
				c0,3.45,0.85,6.45,2.55,9.02c1.7,2.56,4.67,5.47,8.92,8.74c5.72,4.47,9.72,9.04,11.98,13.7
				C342.22,452.74,343.35,458.05,343.35,464.01z"/>
			<path class="st6" d="M420.22,440.95c0,16.91-2.72,29.91-8.17,38.99c-5.44,9.09-13.23,13.63-23.36,13.63
				c-10.17,0-17.97-4.53-23.42-13.59c-5.44-9.06-8.17-22.12-8.17-39.17c0-16.91,2.72-29.88,8.17-38.89
				c5.44-9.02,13.29-13.52,23.54-13.52c10.13,0,17.89,4.53,23.3,13.59C417.52,411.05,420.22,424.04,420.22,440.95z M373.8,440.95
				c0,11.65,1.26,20.52,3.78,26.63c2.52,6.1,6.22,9.15,11.11,9.15c9.85,0,14.77-11.93,14.77-35.78s-4.88-35.78-14.65-35.78
				c-4.96,0-8.71,3.04-11.23,9.12C375.07,420.37,373.8,429.25,373.8,440.95z"/>
			<path class="st6" d="M454.99,452.41v39.76h-16.33V390h21.38c9.05,0,15.72,2.49,20.02,7.48c4.3,4.99,6.45,12.6,6.45,22.85
				c0,12.91-3.74,21.92-11.23,27.04l16.87,44.8h-17.47l-13.87-39.76H454.99z M454.99,436.06h4.2c3.84,0,6.6-1.27,8.29-3.81
				c1.68-2.54,2.52-6.32,2.52-11.36c0-5.22-0.89-8.93-2.67-11.15c-1.78-2.21-4.53-3.32-8.26-3.32h-4.08V436.06z"/>
		</g>
		<g id="BIKE_5_">
			<path class="st6" d="M102.42,245.68h21.69c8.84,0,15.27,2,19.3,5.99c4.03,3.99,6.05,10.34,6.05,19.05
				c0,5.73-1.07,10.52-3.2,14.38c-2.13,3.86-5.04,6.19-8.72,7v0.68c4.81,1.4,8.28,4.02,10.41,7.85c2.13,3.84,3.2,8.93,3.2,15.29
				c0,8.98-2.06,16-6.19,21.08c-4.13,5.08-9.78,7.61-16.95,7.61h-25.58V245.68z M117.3,285.47h7.27c3.33,0,5.68-1.04,7.04-3.11
				c1.36-2.07,2.03-5.17,2.03-9.27c0-4.1-0.78-7.05-2.33-8.83c-1.55-1.78-3.99-2.67-7.33-2.67h-6.69V285.47z M117.3,300.83v27.68
				h7.97c3.29,0,5.75-1.17,7.35-3.52c1.61-2.35,2.41-5.98,2.41-10.9c0-8.84-3.33-13.26-10-13.26H117.3z"/>
			<path class="st6" d="M171.09,344.61v-98.93h14.88v98.93H171.09z"/>
			<path class="st6" d="M262.38,344.61h-16.86l-13.95-42.29l-6.34,7.38v34.92h-15.81v-98.93h15.81v49.06l5.52-14.82l14.48-34.24
				h16.92l-19.65,42.84L262.38,344.61z"/>
			<path class="st6" d="M317.35,344.61h-38.31v-98.93h38.31v15.9h-22.5v23.55h20.87v15.97h-20.87v27.41h22.5V344.61z"/>
		</g>
		<g id="OPEN_5_">
			<path class="st6" d="M308.75,152.24c0,16.38-2.47,28.96-7.39,37.76c-4.93,8.8-11.98,13.2-21.15,13.2
				c-9.21,0-16.27-4.39-21.2-13.16c-4.93-8.77-7.39-21.42-7.39-37.93c0-16.38,2.46-28.93,7.39-37.66
				c4.93-8.73,12.03-13.09,21.31-13.09c9.17,0,16.2,4.39,21.09,13.16C306.3,123.29,308.75,135.86,308.75,152.24z M266.73,152.24
				c0,11.28,1.14,19.87,3.43,25.78c2.28,5.91,5.64,8.86,10.06,8.86c8.92,0,13.37-11.55,13.37-34.65c0-23.1-4.42-34.65-13.27-34.65
				c-4.5,0-7.88,2.94-10.17,8.83C267.87,132.31,266.73,140.92,266.73,152.24z"/>
			<path class="st6" d="M368.78,133.36c0,10.51-2.13,18.58-6.39,24.19c-4.26,5.62-10.41,8.42-18.46,8.42h-3.7v35.87h-14.79v-98.93
				h20.17C361.06,102.91,368.78,113.06,368.78,133.36z M340.24,150.01h2.83c3.62,0,6.32-1.24,8.1-3.72
				c1.78-2.48,2.66-6.54,2.66-12.18c0-5.19-0.82-9.03-2.45-11.54c-1.63-2.5-4.15-3.76-7.56-3.76h-3.59V150.01z"/>
			<path class="st6" d="M419.73,201.84h-35.83v-98.93h35.83v15.9H398.7v23.55h19.52v15.97H398.7v27.41h21.04V201.84z"/>
			<path class="st6" d="M492.11,201.84h-18.05l-24.57-71.66h-0.71c0.91,5.46,1.36,11.32,1.36,17.59v54.07h-13.7v-98.93h18.16
				l24.36,70.92h0.6c-0.69-4.74-1.03-10.38-1.03-16.92v-54h13.59V201.84z"/>
		</g>
		<g id="Maß_rechts_4_">
			<rect x="341.67" y="285.07" class="st6" width="150.44" height="15.93"/>
			
				<rect x="450.39" y="285.07" transform="matrix(-1.836970e-16 1 -1 -1.836970e-16 777.1795 -191.1135)" class="st6" width="67.5" height="15.93"/>
		</g>
		<g id="Maß_links_4_">
			<rect x="102.6" y="142.34" class="st6" width="119.53" height="15.93"/>
			
				<rect x="76.82" y="143.87" transform="matrix(-1.836970e-16 1 -1 -1.836970e-16 262.4034 41.2683)" class="st6" width="67.5" height="15.93"/>
		</g>
	</g>
</g>
<g id="Weiß_auf_Blau" class="st0">
	<g id="Hintergrund_2_" class="st3">
		<rect x="-8.5" y="-8.5" class="st7" width="612.28" height="612.28"/>
		<circle class="st8" cx="297.64" cy="297.64" r="294.09"/>
	</g>
	<g id="Pfade_2_" class="st3">
		<g id="SENSOR_3_">
			<path class="st2" d="M146.26,464.01c0,9.55-2.07,16.87-6.21,21.94c-4.14,5.08-10.12,7.62-17.92,7.62
				c-7.65,0-14.15-1.75-19.51-5.24v-18.8c6.56,4.99,12.59,7.48,18.07,7.48c3.12,0,5.47-1,7.05-3.01c1.58-2,2.37-4.73,2.37-8.18
				c0-3.4-0.94-6.51-2.82-9.33c-1.88-2.82-4.98-5.95-9.31-9.4c-3.76-3.03-6.61-5.93-8.56-8.7c-1.94-2.77-3.44-5.88-4.5-9.33
				c-1.06-3.45-1.59-7.45-1.59-12.02c0-8.76,2.09-15.7,6.27-20.83c4.18-5.12,9.8-7.69,16.84-7.69c6.72,0,13.19,2.19,19.39,6.57
				l-5.4,15.23c-1.92-1.3-3.93-2.47-6.03-3.49c-2.1-1.02-4.35-1.54-6.76-1.54c-2.64,0-4.67,1.01-6.09,3.04
				c-1.42,2.03-2.13,4.79-2.13,8.28c0,3.45,0.85,6.45,2.55,9.02c1.7,2.56,4.67,5.47,8.92,8.74c5.72,4.47,9.72,9.04,11.98,13.7
				C145.13,452.74,146.26,458.05,146.26,464.01z"/>
			<path class="st2" d="M202.29,492.17h-39.57V390h39.57v16.42h-23.24v24.32h21.55v16.49h-21.55v28.3h23.24V492.17z"/>
			<path class="st2" d="M282.22,492.17h-19.93l-27.14-74.01h-0.78c1,5.64,1.5,11.69,1.5,18.17v55.84h-15.13V390h20.05l26.9,73.24
				h0.66c-0.76-4.89-1.14-10.72-1.14-17.47V390h15.01V492.17z"/>
			<path class="st2" d="M343.35,464.01c0,9.55-2.07,16.87-6.21,21.94c-4.14,5.08-10.12,7.62-17.92,7.62
				c-7.65,0-14.15-1.75-19.51-5.24v-18.8c6.57,4.99,12.59,7.48,18.07,7.48c3.12,0,5.47-1,7.05-3.01c1.58-2,2.37-4.73,2.37-8.18
				c0-3.4-0.94-6.51-2.82-9.33c-1.88-2.82-4.98-5.95-9.31-9.4c-3.76-3.03-6.62-5.93-8.56-8.7c-1.94-2.77-3.44-5.88-4.5-9.33
				c-1.06-3.45-1.59-7.45-1.59-12.02c0-8.76,2.09-15.7,6.27-20.83c4.18-5.12,9.8-7.69,16.84-7.69c6.72,0,13.19,2.19,19.39,6.57
				l-5.4,15.23c-1.92-1.3-3.93-2.47-6.03-3.49s-4.35-1.54-6.76-1.54c-2.64,0-4.67,1.01-6.09,3.04c-1.42,2.03-2.13,4.79-2.13,8.28
				c0,3.45,0.85,6.45,2.55,9.02c1.7,2.56,4.67,5.47,8.92,8.74c5.72,4.47,9.72,9.04,11.98,13.7
				C342.22,452.74,343.35,458.05,343.35,464.01z"/>
			<path class="st2" d="M420.22,440.95c0,16.91-2.72,29.91-8.17,38.99c-5.44,9.09-13.23,13.63-23.36,13.63
				c-10.17,0-17.97-4.53-23.42-13.59c-5.44-9.06-8.17-22.12-8.17-39.17c0-16.91,2.72-29.88,8.17-38.89
				c5.44-9.02,13.29-13.52,23.54-13.52c10.13,0,17.89,4.53,23.3,13.59C417.52,411.05,420.22,424.04,420.22,440.95z M373.8,440.95
				c0,11.65,1.26,20.52,3.78,26.63c2.52,6.1,6.22,9.15,11.11,9.15c9.85,0,14.77-11.93,14.77-35.78s-4.88-35.78-14.65-35.78
				c-4.96,0-8.71,3.04-11.23,9.12C375.07,420.37,373.8,429.25,373.8,440.95z"/>
			<path class="st2" d="M454.99,452.41v39.76h-16.33V390h21.38c9.05,0,15.72,2.49,20.02,7.48c4.3,4.99,6.45,12.6,6.45,22.85
				c0,12.91-3.74,21.92-11.23,27.04l16.87,44.8h-17.47l-13.87-39.76H454.99z M454.99,436.06h4.2c3.84,0,6.6-1.27,8.29-3.81
				c1.68-2.54,2.52-6.32,2.52-11.36c0-5.22-0.89-8.93-2.67-11.15c-1.78-2.21-4.53-3.32-8.26-3.32h-4.08V436.06z"/>
		</g>
		<g id="BIKE_3_">
			<path class="st2" d="M102.42,245.68h21.69c8.84,0,15.27,2,19.3,5.99c4.03,3.99,6.05,10.34,6.05,19.05
				c0,5.73-1.07,10.52-3.2,14.38c-2.13,3.86-5.04,6.19-8.72,7v0.68c4.81,1.4,8.28,4.02,10.41,7.85c2.13,3.84,3.2,8.93,3.2,15.29
				c0,8.98-2.06,16-6.19,21.08c-4.13,5.08-9.78,7.61-16.95,7.61h-25.58V245.68z M117.3,285.47h7.27c3.33,0,5.68-1.04,7.04-3.11
				c1.36-2.07,2.03-5.17,2.03-9.27c0-4.1-0.78-7.05-2.33-8.83c-1.55-1.78-3.99-2.67-7.33-2.67h-6.69V285.47z M117.3,300.83v27.68
				h7.97c3.29,0,5.75-1.17,7.35-3.52c1.61-2.35,2.41-5.98,2.41-10.9c0-8.84-3.33-13.26-10-13.26H117.3z"/>
			<path class="st2" d="M171.09,344.61v-98.93h14.88v98.93H171.09z"/>
			<path class="st2" d="M262.38,344.61h-16.86l-13.95-42.29l-6.34,7.38v34.92h-15.81v-98.93h15.81v49.06l5.52-14.82l14.48-34.24
				h16.92l-19.65,42.84L262.38,344.61z"/>
			<path class="st2" d="M317.35,344.61h-38.31v-98.93h38.31v15.9h-22.5v23.55h20.87v15.97h-20.87v27.41h22.5V344.61z"/>
		</g>
		<g id="OPEN_3_">
			<path class="st2" d="M308.75,152.24c0,16.38-2.47,28.96-7.39,37.76c-4.93,8.8-11.98,13.2-21.15,13.2
				c-9.21,0-16.27-4.39-21.2-13.16c-4.93-8.77-7.39-21.42-7.39-37.93c0-16.38,2.46-28.93,7.39-37.66
				c4.93-8.73,12.03-13.09,21.31-13.09c9.17,0,16.2,4.39,21.09,13.16C306.3,123.29,308.75,135.86,308.75,152.24z M266.73,152.24
				c0,11.28,1.14,19.87,3.43,25.78c2.28,5.91,5.64,8.86,10.06,8.86c8.92,0,13.37-11.55,13.37-34.65c0-23.1-4.42-34.65-13.27-34.65
				c-4.5,0-7.88,2.94-10.17,8.83C267.87,132.31,266.73,140.92,266.73,152.24z"/>
			<path class="st2" d="M368.78,133.36c0,10.51-2.13,18.58-6.39,24.19c-4.26,5.62-10.41,8.42-18.46,8.42h-3.7v35.87h-14.79v-98.93
				h20.17C361.06,102.91,368.78,113.06,368.78,133.36z M340.24,150.01h2.83c3.62,0,6.32-1.24,8.1-3.72
				c1.78-2.48,2.66-6.54,2.66-12.18c0-5.19-0.82-9.03-2.45-11.54c-1.63-2.5-4.15-3.76-7.56-3.76h-3.59V150.01z"/>
			<path class="st2" d="M419.73,201.84h-35.83v-98.93h35.83v15.9H398.7v23.55h19.52v15.97H398.7v27.41h21.04V201.84z"/>
			<path class="st2" d="M492.11,201.84h-18.05l-24.57-71.66h-0.71c0.91,5.46,1.36,11.32,1.36,17.59v54.07h-13.7v-98.93h18.16
				l24.36,70.92h0.6c-0.69-4.74-1.03-10.38-1.03-16.92v-54h13.59V201.84z"/>
		</g>
		<g id="Maß_rechts_3_">
			<rect x="341.67" y="285.07" class="st2" width="150.44" height="15.93"/>
			
				<rect x="450.39" y="285.07" transform="matrix(-1.836970e-16 1 -1 -1.836970e-16 777.1795 -191.1135)" class="st2" width="67.5" height="15.93"/>
		</g>
		<g id="Maß_links_3_">
			<rect x="102.6" y="142.34" class="st2" width="119.53" height="15.93"/>
			
				<rect x="76.82" y="143.87" transform="matrix(-1.836970e-16 1 -1 -1.836970e-16 262.4034 41.2683)" class="st2" width="67.5" height="15.93"/>
		</g>
	</g>
</g>
<g id="Blau_auf_Weiß" class="st0">
	<g id="Hintergrund_4_">
		<rect x="-8.5" y="-8.5" class="st1" width="612.28" height="612.28"/>
		<circle class="st2" cx="297.64" cy="297.64" r="294.09"/>
	</g>
	<g id="Pfade_3_" class="st3">
		<g id="SENSOR_4_">
			<path class="st7" d="M146.26,464.01c0,9.55-2.07,16.87-6.21,21.94c-4.14,5.08-10.12,7.62-17.92,7.62
				c-7.65,0-14.15-1.75-19.51-5.24v-18.8c6.56,4.99,12.59,7.48,18.07,7.48c3.12,0,5.47-1,7.05-3.01c1.58-2,2.37-4.73,2.37-8.18
				c0-3.4-0.94-6.51-2.82-9.33c-1.88-2.82-4.98-5.95-9.31-9.4c-3.76-3.03-6.61-5.93-8.56-8.7c-1.94-2.77-3.44-5.88-4.5-9.33
				c-1.06-3.45-1.59-7.45-1.59-12.02c0-8.76,2.09-15.7,6.27-20.83c4.18-5.12,9.8-7.69,16.84-7.69c6.72,0,13.19,2.19,19.39,6.57
				l-5.4,15.23c-1.92-1.3-3.93-2.47-6.03-3.49c-2.1-1.02-4.35-1.54-6.76-1.54c-2.64,0-4.67,1.01-6.09,3.04
				c-1.42,2.03-2.13,4.79-2.13,8.28c0,3.45,0.85,6.45,2.55,9.02c1.7,2.56,4.67,5.47,8.92,8.74c5.72,4.47,9.72,9.04,11.98,13.7
				C145.13,452.74,146.26,458.05,146.26,464.01z"/>
			<path class="st7" d="M202.29,492.17h-39.57V390h39.57v16.42h-23.24v24.32h21.55v16.49h-21.55v28.3h23.24V492.17z"/>
			<path class="st7" d="M282.22,492.17h-19.93l-27.14-74.01h-0.78c1,5.64,1.5,11.69,1.5,18.17v55.84h-15.13V390h20.05l26.9,73.24
				h0.66c-0.76-4.89-1.14-10.72-1.14-17.47V390h15.01V492.17z"/>
			<path class="st7" d="M343.35,464.01c0,9.55-2.07,16.87-6.21,21.94c-4.14,5.08-10.12,7.62-17.92,7.62
				c-7.65,0-14.15-1.75-19.51-5.24v-18.8c6.57,4.99,12.59,7.48,18.07,7.48c3.12,0,5.47-1,7.05-3.01c1.58-2,2.37-4.73,2.37-8.18
				c0-3.4-0.94-6.51-2.82-9.33c-1.88-2.82-4.98-5.95-9.31-9.4c-3.76-3.03-6.62-5.93-8.56-8.7c-1.94-2.77-3.44-5.88-4.5-9.33
				c-1.06-3.45-1.59-7.45-1.59-12.02c0-8.76,2.09-15.7,6.27-20.83c4.18-5.12,9.8-7.69,16.84-7.69c6.72,0,13.19,2.19,19.39,6.57
				l-5.4,15.23c-1.92-1.3-3.93-2.47-6.03-3.49s-4.35-1.54-6.76-1.54c-2.64,0-4.67,1.01-6.09,3.04c-1.42,2.03-2.13,4.79-2.13,8.28
				c0,3.45,0.85,6.45,2.55,9.02c1.7,2.56,4.67,5.47,8.92,8.74c5.72,4.47,9.72,9.04,11.98,13.7
				C342.22,452.74,343.35,458.05,343.35,464.01z"/>
			<path class="st7" d="M420.22,440.95c0,16.91-2.72,29.91-8.17,38.99c-5.44,9.09-13.23,13.63-23.36,13.63
				c-10.17,0-17.97-4.53-23.42-13.59c-5.44-9.06-8.17-22.12-8.17-39.17c0-16.91,2.72-29.88,8.17-38.89
				c5.44-9.02,13.29-13.52,23.54-13.52c10.13,0,17.89,4.53,23.3,13.59C417.52,411.05,420.22,424.04,420.22,440.95z M373.8,440.95
				c0,11.65,1.26,20.52,3.78,26.63c2.52,6.1,6.22,9.15,11.11,9.15c9.85,0,14.77-11.93,14.77-35.78s-4.88-35.78-14.65-35.78
				c-4.96,0-8.71,3.04-11.23,9.12C375.07,420.37,373.8,429.25,373.8,440.95z"/>
			<path class="st7" d="M454.99,452.41v39.76h-16.33V390h21.38c9.05,0,15.72,2.49,20.02,7.48c4.3,4.99,6.45,12.6,6.45,22.85
				c0,12.91-3.74,21.92-11.23,27.04l16.87,44.8h-17.47l-13.87-39.76H454.99z M454.99,436.06h4.2c3.84,0,6.6-1.27,8.29-3.81
				c1.68-2.54,2.52-6.32,2.52-11.36c0-5.22-0.89-8.93-2.67-11.15c-1.78-2.21-4.53-3.32-8.26-3.32h-4.08V436.06z"/>
		</g>
		<g id="BIKE_4_">
			<path class="st7" d="M102.42,245.68h21.69c8.84,0,15.27,2,19.3,5.99c4.03,3.99,6.05,10.34,6.05,19.05
				c0,5.73-1.07,10.52-3.2,14.38c-2.13,3.86-5.04,6.19-8.72,7v0.68c4.81,1.4,8.28,4.02,10.41,7.85c2.13,3.84,3.2,8.93,3.2,15.29
				c0,8.98-2.06,16-6.19,21.08c-4.13,5.08-9.78,7.61-16.95,7.61h-25.58V245.68z M117.3,285.47h7.27c3.33,0,5.68-1.04,7.04-3.11
				c1.36-2.07,2.03-5.17,2.03-9.27c0-4.1-0.78-7.05-2.33-8.83c-1.55-1.78-3.99-2.67-7.33-2.67h-6.69V285.47z M117.3,300.83v27.68
				h7.97c3.29,0,5.75-1.17,7.35-3.52c1.61-2.35,2.41-5.98,2.41-10.9c0-8.84-3.33-13.26-10-13.26H117.3z"/>
			<path class="st7" d="M171.09,344.61v-98.93h14.88v98.93H171.09z"/>
			<path class="st7" d="M262.38,344.61h-16.86l-13.95-42.29l-6.34,7.38v34.92h-15.81v-98.93h15.81v49.06l5.52-14.82l14.48-34.24
				h16.92l-19.65,42.84L262.38,344.61z"/>
			<path class="st7" d="M317.35,344.61h-38.31v-98.93h38.31v15.9h-22.5v23.55h20.87v15.97h-20.87v27.41h22.5V344.61z"/>
		</g>
		<g id="OPEN_4_">
			<path class="st7" d="M308.75,152.24c0,16.38-2.47,28.96-7.39,37.76c-4.93,8.8-11.98,13.2-21.15,13.2
				c-9.21,0-16.27-4.39-21.2-13.16c-4.93-8.77-7.39-21.42-7.39-37.93c0-16.38,2.46-28.93,7.39-37.66
				c4.93-8.73,12.03-13.09,21.31-13.09c9.17,0,16.2,4.39,21.09,13.16C306.3,123.29,308.75,135.86,308.75,152.24z M266.73,152.24
				c0,11.28,1.14,19.87,3.43,25.78c2.28,5.91,5.64,8.86,10.06,8.86c8.92,0,13.37-11.55,13.37-34.65c0-23.1-4.42-34.65-13.27-34.65
				c-4.5,0-7.88,2.94-10.17,8.83C267.87,132.31,266.73,140.92,266.73,152.24z"/>
			<path class="st7" d="M368.78,133.36c0,10.51-2.13,18.58-6.39,24.19c-4.26,5.62-10.41,8.42-18.46,8.42h-3.7v35.87h-14.79v-98.93
				h20.17C361.06,102.91,368.78,113.06,368.78,133.36z M340.24,150.01h2.83c3.62,0,6.32-1.24,8.1-3.72
				c1.78-2.48,2.66-6.54,2.66-12.18c0-5.19-0.82-9.03-2.45-11.54c-1.63-2.5-4.15-3.76-7.56-3.76h-3.59V150.01z"/>
			<path class="st7" d="M419.73,201.84h-35.83v-98.93h35.83v15.9H398.7v23.55h19.52v15.97H398.7v27.41h21.04V201.84z"/>
			<path class="st7" d="M492.11,201.84h-18.05l-24.57-71.66h-0.71c0.91,5.46,1.36,11.32,1.36,17.59v54.07h-13.7v-98.93h18.16
				l24.36,70.92h0.6c-0.69-4.74-1.03-10.38-1.03-16.92v-54h13.59V201.84z"/>
		</g>
		<g id="Maß_rechts_5_">
			<rect x="341.67" y="285.07" class="st7" width="150.44" height="15.93"/>
			
				<rect x="450.39" y="285.07" transform="matrix(-1.836970e-16 1 -1 -1.836970e-16 777.1795 -191.1135)" class="st7" width="67.5" height="15.93"/>
		</g>
		<g id="Maß_links_5_">
			<rect x="102.6" y="142.34" class="st7" width="119.53" height="15.93"/>
			
				<rect x="76.82" y="143.87" transform="matrix(-1.836970e-16 1 -1 -1.836970e-16 262.4034 41.2683)" class="st7" width="67.5" height="15.93"/>
		</g>
	</g>
</g>
<g id="Ebene_4" class="st0">
</g>
<g id="Kreis" class="st0">
	<circle class="st9" cx="297.64" cy="297.64" r="294.8"/>
</g>
</svg>
