<?xml version="1.0" encoding="utf-8"?>
<!-- Generator: Adobe Illustrator 25.2.3, SVG Export Plug-In . SVG Version: 6.00 Build 0)  -->
<svg version="1.1" xmlns="http://www.w3.org/2000/svg" xmlns:xlink="http://www.w3.org/1999/xlink" x="0px" y="0px"
	 viewBox="0 0 595.28 595.28" style="enable-background:new 0 0 595.28 595.28;" xml:space="preserve">
<style type="text/css">
	.st0{display:none;}
	.st1{display:inline;fill:#FFFFFF;}
	.st2{fill:#FFFFFF;}
	.st3{display:inline;}
	.st4{fill:#1D1D1B;}
	.st5{display:inline;fill:#010000;}
	.st6{fill:#010000;}
	.st7{fill:#D4C7A9;}
	.st8{display:none;fill:#FFFFFF;}
	.st9{fill:#1F2038;}
	.st10{fill:#2D4294;}
	.st11{display:none;fill:#2D4294;}
	.st12{display:inline;fill:none;stroke:#EEB414;stroke-width:2.879;stroke-miterlimit:10;}
</style>
<metadata><?xpacket begin="﻿" id="W5M0MpCehiHzreSzNTczkc9d"?>
<x:xmpmeta xmlns:x="adobe:ns:meta/" x:xmptk="Adobe XMP Core 6.0-c004 79.164570, 2020/11/18-15:51:46        ">
   <rdf:RDF xmlns:rdf="http://www.w3.org/1999/02/22-rdf-syntax-ns#">
      <rdf:Description rdf:about=""
            xmlns:dc="http://purl.org/dc/elements/1.1/"
            xmlns:xmp="http://ns.adobe.com/xap/1.0/"
            xmlns:xmpGImg="http://ns.adobe.com/xap/1.0/g/img/"
            xmlns:xmpMM="http://ns.adobe.com/xap/1.0/mm/"
            xmlns:stRef="http://ns.adobe.com/xap/1.0/sType/ResourceRef#"
            xmlns:stEvt="http://ns.adobe.com/xap/1.0/sType/ResourceEvent#"
            xmlns:illustrator="http://ns.adobe.com/illustrator/1.0/"
            xmlns:xmpTPg="http://ns.adobe.com/xap/1.0/t/pg/"
            xmlns:stDim="http://ns.adobe.com/xap/1.0/sType/Dimensions#"
            xmlns:xmpG="http://ns.adobe.com/xap/1.0/g/"
            xmlns:pdf="http://ns.adobe.com/pdf/1.3/"
            xmlns:photoshop="http://ns.adobe.com/photoshop/1.0/"
            xmlns:xmpRights="http://ns.adobe.com/xap/1.0/rights/">
         <dc:format>image/svg+xml</dc:format>
         <dc:title>
            <rdf:Alt>
               <rdf:li xml:lang="x-default">OpenBikeSensor_Logogramm_210x210mm</rdf:li>
            </rdf:Alt>
         </dc:title>
         <dc:creator>
            <rdf:Seq>
               <rdf:li>Franziska Köppe | madiko</rdf:li>
            </rdf:Seq>
         </dc:creator>
         <dc:subject>
            <rdf:Bag>
               <rdf:li>Logo</rdf:li>
               <rdf:li>Logogramm</rdf:li>
               <rdf:li>Markenzeichen</rdf:li>
            </rdf:Bag>
         </dc:subject>
         <dc:rights>
            <rdf:Alt>
               <rdf:li xml:lang="x-default">(c) OpenBikeSensor</rdf:li>
            </rdf:Alt>
         </dc:rights>
         <xmp:CreatorTool>Adobe Illustrator 25.2 (Windows)</xmp:CreatorTool>
         <xmp:CreateDate>2021-06-07T18:44:31+02:00</xmp:CreateDate>
         <xmp:ModifyDate>2021-06-07T18:44:31+02:00</xmp:ModifyDate>
         <xmp:MetadataDate>2021-06-07T18:44:31+02:00</xmp:MetadataDate>
         <xmp:Thumbnails>
            <rdf:Alt>
               <rdf:li rdf:parseType="Resource">
                  <xmpGImg:width>256</xmpGImg:width>
                  <xmpGImg:height>84</xmpGImg:height>
                  <xmpGImg:format>JPEG</xmpGImg:format>
                  <xmpGImg:image>/9j/4AAQSkZJRgABAgEASABIAAD/7QAsUGhvdG9zaG9wIDMuMAA4QklNA+0AAAAAABAASAAAAAEA&#xA;AQBIAAAAAQAB/+4ADkFkb2JlAGTAAAAAAf/bAIQABgQEBAUEBgUFBgkGBQYJCwgGBggLDAoKCwoK&#xA;DBAMDAwMDAwQDA4PEA8ODBMTFBQTExwbGxscHx8fHx8fHx8fHwEHBwcNDA0YEBAYGhURFRofHx8f&#xA;Hx8fHx8fHx8fHx8fHx8fHx8fHx8fHx8fHx8fHx8fHx8fHx8fHx8fHx8fHx8f/8AAEQgAVAEAAwER&#xA;AAIRAQMRAf/EAaIAAAAHAQEBAQEAAAAAAAAAAAQFAwIGAQAHCAkKCwEAAgIDAQEBAQEAAAAAAAAA&#xA;AQACAwQFBgcICQoLEAACAQMDAgQCBgcDBAIGAnMBAgMRBAAFIRIxQVEGE2EicYEUMpGhBxWxQiPB&#xA;UtHhMxZi8CRygvElQzRTkqKyY3PCNUQnk6OzNhdUZHTD0uIIJoMJChgZhJRFRqS0VtNVKBry4/PE&#xA;1OT0ZXWFlaW1xdXl9WZ2hpamtsbW5vY3R1dnd4eXp7fH1+f3OEhYaHiImKi4yNjo+Ck5SVlpeYmZ&#xA;qbnJ2en5KjpKWmp6ipqqusra6voRAAICAQIDBQUEBQYECAMDbQEAAhEDBCESMUEFURNhIgZxgZEy&#xA;obHwFMHR4SNCFVJicvEzJDRDghaSUyWiY7LCB3PSNeJEgxdUkwgJChgZJjZFGidkdFU38qOzwygp&#xA;0+PzhJSktMTU5PRldYWVpbXF1eX1RlZmdoaWprbG1ub2R1dnd4eXp7fH1+f3OEhYaHiImKi4yNjo&#xA;+DlJWWl5iZmpucnZ6fkqOkpaanqKmqq6ytrq+v/aAAwDAQACEQMRAD8A9U4q7FXYq7FXYq7FXYq7&#xA;FWMfmD5+0ryXoTajeD1riQmOxslIDzSU6V7KvVmpt86DMjTac5ZUGGSYiLfK/m78zfOXmm5kfUL+&#xA;SO1Ynhp9uzRW6r4cAfi+b1OdFh0uPGNh8XAnllJjEUssUiyRO0ci7q6khgfYjMghrBen/l1+e3mP&#xA;y/dxWmtzyarorEK4lYvcQjpyjkPxMB/I30UzX6ns+ExcdpORjzkc+T6gsL+z1CygvrKVZ7S5RZYJ&#xA;k3VkYVBGc/KJiaPNzQbdfsy2NyykqyxOVYbEEKdxjHmEviz/AJWD59/6mXVf+k24/wCa86r8tj/m&#xA;x+QdZ4ku8u/5WD59/wCpl1X/AKTbj/mvH8tj/mx+QXxJd5VIPzI/MCF+aeZNSJ22e6mkG3s7MMB0&#xA;uI/wj5KMsh1Z15Q/5yM82adcxxeYQur6eSBI4VIrlF6VVkCo1PBhv/MMxM3ZkJD0+kt0NSRzfRug&#xA;67peu6Tb6rpcwnsrpeUbjY+BVgejKdiM0WTGYS4TzcyJBFhH5BLyL84/zpbyzK2g6AUk1ugN1csA&#xA;6WysKqAp2aQgg77AeObPRaHxPVL6fvcfNm4dhzfOmseYdd1qcz6tf3F9KTWs8jOB7KCaKPYZvIY4&#xA;xFRFOHKRPNC2d/fWMwnsriW1mU1WWF2jYEeDKQclKIPNAJHJ6/8Alt/zkFrGn3UOnebJWv8ATHIQ&#xA;agwrcQ12Bcj+9Txr8XuemazVdnRkLhse5yceoPKT6QgnhuIY54HWWGVQ8UqEMrKwqrKRsQRmiIrY&#xA;uYvwK7FXYq7FXYq7FXYq8a/6Gg8pf9Wm/wD+SP8AzXm1/kmfeHG/Mxd/0NB5S/6tN/8A8kf+a8f5&#xA;Jn3hfzMXsUEqzQRzKCFkUOAetGFc1ZFFyV+BXYq7FXYq7FXyB+c3nCXzL54vWSQtp+nM1nYqDVeM&#xA;Zo8g7fvHBNfCnhnT6LD4eMd53ddnncmC5ltTsVdir6E/5xm84SzW995UuXLfVgbzT6npGzBZkHsH&#xA;ZWHzbNL2rhqpj3FzNNPantuo/wDHPuv+MMn/ABE5qYcw5RfB2dg6l2KuxV2Kvbf+cZvNU8Gs33lq&#xA;aQm1vIjdWqE7LPFQOFH+XGan/VzU9qYbiJ9Q5WmlvT37XtWh0fRL/VZhWKwt5bhl8fSQtxHzpTNN&#xA;jhxSEe9yyaFvh3UdQu9R1C51C8kMt1dyPNPIf2nclmP3nOujERFDkHVk2bQ2FDsVdir6i/5xx1HX&#xA;rnyTLBqET/o+0nKaVcv+3Gd5EWu5WN+h6b0H2duf7TjEZLHM83P05PDu9XzWt7sVdirsVWTyrDBJ&#xA;MwJWNS5A60UVwgWVeO/9DQeUv+rTf/8AJH/mvNp/JM+8ON+Zi7/oaDyl/wBWm/8A+SP/ADXj/JM+&#xA;8L+Zi+a83rhOxV946d/xz7X/AIwx/wDERnHz5l2wRGRV2KuxV2KpR5w1Y6P5U1fVFbjJZ2c0sR/4&#xA;sWM8PvamW4IcUwO8sZGgS+HiSTU7k9TnWurejfkb5AtPNnmeWXUo/V0nSkWa5i3pJI5Iijan7J4s&#xA;x8eNO+YOv1Bxw2+ot+DHxHfo+kdb8geT9Y0l9LutKtkt2QpE0MSRvFts0TKBwK+36s0WPU5IysEu&#xA;bKAIp8c+Y9EudC12/wBHuSDNYzPCzjYMFPwsPZhQjOox5BOIkOrrZRo0yH8ntXbS/wAydCmB+Ge4&#xA;Fo48RdAwiv8AsnByjWw4sUvdfyZ4TUg+vtR/4591/wAYZP8AiJzmYcw7Evg7OwdS9R/5x+8s6D5g&#xA;8zaja6zZR31vFZGWOOWtA/qovIUI7E5r+0csoQBia3cjTxBJt7TrX5GflxqVk8EWlrYTkERXVqzq&#xA;6Meh4lijfJhmqh2hlibu3Jlhiej5T1vSrjSNZvtKuCDPYTyW0jDoWicoSPY0qM6PHMSiJDq6+Qo0&#xA;yz8kJpIvzR0JkP2nmRvcPbyKf15ja8Xhl+OrZg+sPob8753g/KzXXTqUgj+iS5iQ/g2aTQC80fx0&#xA;czMagXx/nTOue7/844eRdE1Gzv8AzHqdrHeSw3H1SzjmUOkbIiyO/FqjkfUWh7Zp+09RKJEAa6uX&#xA;poAi3r3mT8u/J3mGwktL/TIAXFEuYY1jnjamzJIoB28Dse4OazFqckDYLkSgJc3gvk/8hdXvfOl9&#xA;p+sBo9C0icpcXYHA3IoHjSLr9tGVmP7IPjTNzn7QiMYMfql9jiw054t+T6ZtLS1s7WK0tYlgtoEE&#xA;cMKAKqoooFAHYZoJSJNlzQFXArsVdirsVQ+o/wDHPuv+MMn/ABE5KHMKXwdnYOpdirsVdir7x07/&#xA;AI59r/xhj/4iM4+fMu2CIyKuxV2KuxVgn55XBg/K3XGU0Z1gjG9K87mNSP8AgSczNALzR/HRqzGo&#xA;F8g50zrn0n/zi/ZonlPVr0f3k9/6LeNIYUYf8njmi7Wl6wPJzdN9L2bNU5L5Q/5yFsltvzMu5VFP&#xA;rdvbzn3Ij9Kv/JPOk7NleEeVuBqB6mB6Hcta61p9yv2oLmGUdOqSBu/yzMmLiQ1Q5h9x6j/xz7r/&#xA;AIwyf8ROcjDmHaF8HZ2DqXsv/OMH/KYar/2zz/yfjzV9q/3Y97laXmX0JrXmDRdDs3vNWvYrO3jU&#xA;sWlYAmnZV+0x8ABXNJjxSmaiLcskDm+K/NWsJrXmXVdWRSkd/dTXEaHqFkcsoPvQ51eKHDAR7g6y&#xA;crJLLfyF06S8/M/S3UEx2aT3EpHZRCyL/wAO65jdoSrCfNs04uT6A/Ou1e6/K/Xo1BJWKKXbwhnj&#xA;kP4Jml0BrNH8dHMzC4l8e507rXsP5AfmXpfl24utB1mUW1hqEqzW125pHHPxCMJD+yrqF+LoKb7b&#xA;jWdo6UzAlHmHJ0+QDYvpdHSRFdGDo4DKymoIO4IIzQOa3irsVdirsVdirsVQ+o/8c+6/4wyf8ROS&#xA;hzCl8HZ2DqXYq7FXYq7FXYq7FXYq+yvyh/8AJa+X/wDmFH/Emzl9b/ey97s8X0hKP+cgv/JYah/x&#xA;mtv+Ty5Z2b/fD4sM/wBBfJmdI699R/8AONf/AJLyb/toT/8AJuLOf7U/vfg5+n+l6tmtb3y3/wA5&#xA;Jf8AkxI/+YCD/icmdD2Z/dfFwdT9TzGx/wB7bf8A4yp/xIZsJcmiPN91aj/xz7r/AIwyf8ROchDm&#xA;Hal8HZ2DqXYq7FXYq+nP+ce/y+n0PRpfMGox+nqGrIot4mFGjtQeQr7ymjU8AuaDtLUicuEch97n&#xA;afHQs9XqeradBqel3mm3H9xewSW8tOvCVCjfgc10JGMgR0byLfD2uaNfaLrF5pN8nC7spWhlHYlT&#xA;sw/yWG4PcZ1uOYnESHIurlGjSByaGW+TvzS85+U3RNNvmksVO+n3NZbcjrQKTVP9gRmNn0mPJzG/&#xA;e2Qyyi+jPy2/OPQPOYFm6/o/XFFWsZGqJKCrNA+3IDqV6j5b5o9VopYt+cXNx5hL3vQMwm1iH5vf&#xA;+S18wf8AMKf+JLmVov72PvYZfpL41zqHWOxV2KuxV2KuxV2KuxV2KuxV2KuxV9lflD/5LXy//wAw&#xA;o/4k2cvrf72Xvdni+kJR/wA5Bf8AksNQ/wCM1t/yeXLOzf74fFhn+gvkzOkde+o/+ca//JeTf9tC&#xA;f/k3FnP9qf3vwc/T/S9WzWt75b/5yS/8mJH/AMwEH/E5M6Hsz+6+Lg6n6nmNj/vbb/8AGVP+JDNh&#xA;Lk0R5vurUf8Ajn3X/GGT/iJzkIcw7Uvg7OwdS7FXYq7FXu//ADjv+ZF2b0eTtTmMsDozaRI5qUZA&#xA;WaCp/ZK1ZfClO+aftLSivEHxcvT5P4S+gs0rlvLvzk/J9fN0I1fSOMXmC3TiUYhUuY16IzHo6/ss&#xA;dux2oRsdFrfD9Mvp+5ozYuLcc3zBqOm6hpt5LZahbyWt3CeMsEqlHU/I5v4yEhY3DgkEc0NkkK1n&#xA;eXVldw3dpK0F1bussEyGjI6GqsD4g4JRBFFINPsz8tvOCebfKFlq5ot2QYb6NdgtxHs9B2DbMB4H&#xA;OW1WDw5mPR2WOfELQ/5vf+S18wf8wp/4kuS0X97H3rl+kvjXOodY7FXYq7FXYq7FXYq7FX3Dp/l7&#xA;QDYWxOmWhJiQkmCP+Uf5OclPLKzuXagBEf4d8v8A/VstP+REf/NODxZ95Wg7/Dvl/wD6tlp/yIj/&#xA;AOacfFn3laDv8O+X/wDq2Wn/ACIj/wCacfFn3laCNhhhgiWKGNYokFEjQBVA8ABsMgTfNLz/APP2&#xA;Iv8AlbqrA09J7Zz71uY1/wCNszezj++Hx+5pz/QXyTnSOvfT3/OM04fyFeR7cotSlFK70aGFgSPp&#xA;OaDtUfvB7v1udpj6XreaxyHyz/zkhIj/AJjcVO8djArfOrt+ps6Lswfuvi4Op+p5ppys+oWyKKs0&#xA;qBQOpJYZny5NEeYfdOo/8c+6/wCMMn/ETnIQ5h2pfB2dg6l69/zjVY2V55s1OO7t47hFsCyrKiuA&#xA;fWjFQGBzW9qSIgK73J03MvoO+8meUr+BoLvRrKaJgRRoI6ivgQtQfcZpI55g2JFyzEF8ofm15Mtv&#xA;KPnS50yz5fo+VEurJXJZlikqOJJ3PF1ZQfDOj0ec5MYJ5uBmhwypIfK2qPpXmXStSQ0a0u4ZjTuE&#xA;kBYfSNsuyw4oEd4YQNSD7lzkXaOxVIvNXkfyv5qthBrdilwygiK4HwTR1/kkWjDft08Rl2HUTxn0&#xA;ljKAlzfN/wCaf5K6l5PRtU0+Vr/QC3FpWAE1uWNFEwGxB6BwKV6gbV3uk1wy7HaThZcHDuOTzPM9&#xA;ofQf/OLWou1p5g01m+CKS3uYl95FdHP/ACTTNL2tHeJ97maU7EPc5oYZ4mimjWWJxR43AZSPAg7H&#xA;NQDXJykF/h3y/wD9Wy0/5ER/805PxZ95RQd/h3y//wBWy0/5ER/804+LPvK0Hf4d8v8A/VstP+RE&#xA;f/NOPiz7ytBD6h5e0AWFyRploCInIIgj/lP+ThhllY3KkB8PZ1rqnYq7FXYq+8dO/wCOfa/8YY/+&#xA;IjOPnzLtgiMirsVdirsVYr+auntf/l15gt1FWFnJMB3Pofvqbf8AGPMnRy4csT5sMguJfGGdS6x7&#xA;x/zi9r0KXGs6DK9JJhHeWqE9eFUlp70KZp+1sewl8HL0suYfQOaVy3xp+bGvw67+YOs39u4e29YQ&#xA;QOu6slugiDL7MU5fTnU6PHwYgC63NK5FAeQdObUfO2hWYHIS31v6g/yFkDP/AMKDk9RLhxyPkjGL&#xA;kH2lqP8Axz7r/jDJ/wAROcrDmHZl8HZ2DqXsv/OMH/KYar/2zz/yfjzV9q/3Y97laXmX0pmhcx8p&#xA;f85C63aap+Ykkds6yLpttFZSOu4Mis8rivipl4n3GdH2bjMcW/U24GoNyeaojO6ooqzEBR4k5ntD&#xA;73zjXbMJ88fm15Z8o6pYaZesZbu7kT6ysZ2toGNPWk6/Qo3I38K5en0c8oJHIfa1zyiJos0ilimi&#xA;SaF1kikUPHIhDKysKhlI2IIzFIpsSPz8LU+R/MAugpg/R11z5dP7lqfTXp75bpr8SNd4Yz5F8SZ1&#xA;jq3un/OLP/HQ8w/8Ybb/AIlJmo7W5R+Ll6Xq+hc0jluxV2KuxVD6j/xz7r/jDJ/xE5KHMKXwdnYO&#xA;pdir6E/6FZsv+pil/wCkVf8Aqrml/lY/zftcz8qO93/QrNl/1MUv/SKv/VXH+Vj/ADftX8qO97jb&#xA;wiG3ihB5CNFSvjxFM1BNlylTArsVdirsVWTQxTwyQyqHilUpIh6FWFCD8xhBrdXw75n0K50DzDqG&#xA;jXAPqWM7xVIpyQGqP8nQhh8863FkE4iQ6urnGjSho+salo2p2+p6ZO1tfWrc4Zk6g0oQQdiCDQg7&#xA;EZKcBIUeSIyINhn+tf8AOQn5gappMmnVtbITIY5rq1jdZ2UijUZndVqO6qD4UzCx9nYoyvctx1Ei&#xA;HmeZ7Q9Z/wCcb/Lj6h51k1d1rbaPAzBj09a4BjQf8BzP0Zre08vDj4f5zkaaNyvufTGo/wDHPuv+&#xA;MMn/ABE5oYcw5xfB2dg6lOfK/nDzH5WvJbzQrv6nczx+jLJ6cUtU5BqUlVx1UZVlwxyCpC2UZmPJ&#xA;PNR/Ob8zdQtmt7jXpliYEN6EcNu1D/lwpG345VHQ4YmxFmc0z1YWSSSSak7knrXMpqZF+XWhSa75&#xA;30bTVQukl1G84/4piPqSn/gEOUanJwYyfJsxRuQfUX5r+f28l+WTfQW7T3105trI0/dJKVLc5D4A&#xA;AkL+195HP6PTeLOjyDnZcnCLfIeo6jfalfT39/O9zeXLmSeeQ1ZmPc500YiIocnXEkmyy/yd+cnn&#xA;fypaLY2NxHdaelfSs7xDIiV68CrI6j2DU9sxc+ix5DZ5+TZDNKOyp51/Ojzp5tsDpt48FnpzkGW2&#xA;s0ZBJxNV9RnaRiAewIHtgwaHHjNjc+aZ55SFMDzMaX0d/wA4v6Q8Pl/WNVYUF7cxwR17i2QsSPas&#xA;9PozR9rTuQj3BzdMNiXtealyXYq7FXYqp3EImt5YSeIkRkr4chTCDRV4d/0KzZf9TFL/ANIq/wDV&#xA;XNv/ACsf5v2uL+VHe7/oVmy/6mKX/pFX/qrj/Kx/m/av5Ud73XNO5TsVdirsVdirsVdirsVeK/8A&#xA;OQP5Y3GqwjzVo0BlvrZAmpW8YJeWFfsyqB1aPo3+T/q5tuztWI+iXLo42fFe4fOGbxwnYqi9K0rU&#xA;dW1GDTtOga5vblgkMKCpYn9QHUk7AZGcxEWeSQCTQfYf5Z+Rbfyb5Xg0wFZL6U+vqE6/tzMACAf5&#xA;UA4r9/fOY1WoOWd9OjsscOEUyPUf+Ofdf8YZP+InKIcwzL4OzsHUuxV2Kr4YZZpUhhRpJZGCxxoC&#xA;zMxNAABuScSaV9O/kV+Vlz5YtJdc1mP09avoxHFbNStvASGo3+W5A5DtSnjnP9oasZDwx+kOfgxc&#xA;O55vQ/NXlnTfM2g3ejaitbe6SgcD4o3G6SJ/lK2/4ZhYcpxyEg2yiCKL4685+S9c8paxJpuqwlaE&#xA;m3uVB9KePs8bd/cdR0OdPgzxyRuLrpwMTRSHLmDsVTTy35c1bzHrFvpOlQma7uGp/kov7Ujn9lV7&#xA;nK8uWMI8UuTKMTI0H2f5S8t2flry7Y6JaHlDZx8DIRQu5JaRyP8AKck5y2bKckzI9XZRjQpNsqZO&#xA;xV2KuxV2KuxV2KuxV2KuxV2KuxV2KuxV2KuxV89/m3/yor9Iz1+sfpzkfrH6E9Ph6nf1fU/ccq/a&#xA;4fFXrm70f5iv6P8AScTL4fx8nltp/wAq7+sx/XP0v9Wr+99H6tzp/k8ts2MvFrbh+1o9Hm+jvyf/&#xA;AOVT/VJP8Gcfr3D/AEz6zX69xr+3z/YrT+7+H6c0Wt8a/wB5y+xzMXB/C9IzAblK79L6rN6tfS9N&#xA;vUp140NafRhjzV8z/wDWNv8A2tv+Gzf/AOFf0XC/dO/6xt/7W3/DY/4V/RX90qW//QtXrLz/AEnx&#xA;3r6nq8enfh8X3YD+b/op/dPV/wAuf+VM+r/zpv1L69Q05c/rlKb8frP7+njTbNdqfzH+Uuvs+xvx&#xA;8H8L0LMFtdiqQedv8GfoOT/F31X9FV3+t0+3Q09P9vnStOHxZdg8Ti9F2xnVb8nzD5o/5Uv9Zb9A&#xA;/pmnI/759ClduHq/vv8Ags6HF49erhcGXh9LSzS/+VZfXE/Sf6Z+qfteh9V51/2XbLJ+LW3DfxQO&#xA;DzfTH5Vf8qz/AES/+CfS40H1yvL63Xt63qfvOtafs/y5oNZ43F+8/Y5uLhr0s4zDbHYq7FXYq7FX&#xA;Yq7FXYq//9k=</xmpGImg:image>
               </rdf:li>
            </rdf:Alt>
         </xmp:Thumbnails>
         <xmpMM:OriginalDocumentID>uuid:9E3E5C9A8C81DB118734DB58FDDE4BA7</xmpMM:OriginalDocumentID>
         <xmpMM:DocumentID>xmp.did:cff33303-46a3-104d-a102-fd3271e8f71e</xmpMM:DocumentID>
         <xmpMM:InstanceID>xmp.iid:cff33303-46a3-104d-a102-fd3271e8f71e</xmpMM:InstanceID>
         <xmpMM:RenditionClass>default</xmpMM:RenditionClass>
         <xmpMM:DerivedFrom rdf:parseType="Resource">
            <stRef:instanceID>xmp.iid:ba82ede2-f0f6-0942-9e23-1d560fe5e094</stRef:instanceID>
            <stRef:documentID>xmp.did:ba82ede2-f0f6-0942-9e23-1d560fe5e094</stRef:documentID>
            <stRef:originalDocumentID>uuid:9E3E5C9A8C81DB118734DB58FDDE4BA7</stRef:originalDocumentID>
            <stRef:renditionClass>default</stRef:renditionClass>
         </xmpMM:DerivedFrom>
         <xmpMM:History>
            <rdf:Seq>
               <rdf:li rdf:parseType="Resource">
                  <stEvt:action>saved</stEvt:action>
                  <stEvt:instanceID>xmp.iid:5cdd613c-2901-1c49-b30f-8f473ea4f146</stEvt:instanceID>
                  <stEvt:when>2021-03-18T22:23:21+01:00</stEvt:when>
                  <stEvt:softwareAgent>Adobe Illustrator 25.2 (Windows)</stEvt:softwareAgent>
                  <stEvt:changed>/</stEvt:changed>
               </rdf:li>
               <rdf:li rdf:parseType="Resource">
                  <stEvt:action>saved</stEvt:action>
                  <stEvt:instanceID>xmp.iid:cff33303-46a3-104d-a102-fd3271e8f71e</stEvt:instanceID>
                  <stEvt:when>2021-06-07T18:44:31+02:00</stEvt:when>
                  <stEvt:softwareAgent>Adobe Illustrator 25.2 (Windows)</stEvt:softwareAgent>
                  <stEvt:changed>/</stEvt:changed>
               </rdf:li>
            </rdf:Seq>
         </xmpMM:History>
         <illustrator:StartupProfile>Basic RGB</illustrator:StartupProfile>
         <illustrator:CreatorSubTool>Adobe Illustrator</illustrator:CreatorSubTool>
         <xmpTPg:NPages>1</xmpTPg:NPages>
         <xmpTPg:HasVisibleTransparency>False</xmpTPg:HasVisibleTransparency>
         <xmpTPg:HasVisibleOverprint>False</xmpTPg:HasVisibleOverprint>
         <xmpTPg:MaxPageSize rdf:parseType="Resource">
            <stDim:w>210.000000</stDim:w>
            <stDim:h>210.000000</stDim:h>
            <stDim:unit>Millimeters</stDim:unit>
         </xmpTPg:MaxPageSize>
         <xmpTPg:PlateNames>
            <rdf:Seq>
               <rdf:li>Cyan</rdf:li>
               <rdf:li>Magenta</rdf:li>
               <rdf:li>Yellow</rdf:li>
            </rdf:Seq>
         </xmpTPg:PlateNames>
         <xmpTPg:SwatchGroups>
            <rdf:Seq>
               <rdf:li rdf:parseType="Resource">
                  <xmpG:groupName>Standard-Farbfeldgruppe</xmpG:groupName>
                  <xmpG:groupType>0</xmpG:groupType>
                  <xmpG:Colorants>
                     <rdf:Seq>
                        <rdf:li rdf:parseType="Resource">
                           <xmpG:swatchName>Weiß</xmpG:swatchName>
                           <xmpG:mode>CMYK</xmpG:mode>
                           <xmpG:type>PROCESS</xmpG:type>
                           <xmpG:cyan>0.000000</xmpG:cyan>
                           <xmpG:magenta>0.000000</xmpG:magenta>
                           <xmpG:yellow>0.000000</xmpG:yellow>
                           <xmpG:black>0.000000</xmpG:black>
                        </rdf:li>
                        <rdf:li rdf:parseType="Resource">
                           <xmpG:swatchName>Schwarz</xmpG:swatchName>
                           <xmpG:mode>CMYK</xmpG:mode>
                           <xmpG:type>PROCESS</xmpG:type>
                           <xmpG:cyan>85.964751</xmpG:cyan>
                           <xmpG:magenta>85.015637</xmpG:magenta>
                           <xmpG:yellow>78.905922</xmpG:yellow>
                           <xmpG:black>100.000000</xmpG:black>
                        </rdf:li>
                        <rdf:li rdf:parseType="Resource">
                           <xmpG:swatchName>C=94 M=85 Y=44 K=59</xmpG:swatchName>
                           <xmpG:type>PROCESS</xmpG:type>
                           <xmpG:tint>100.000000</xmpG:tint>
                           <xmpG:mode>CMYK</xmpG:mode>
                           <xmpG:cyan>94.000000</xmpG:cyan>
                           <xmpG:magenta>85.000002</xmpG:magenta>
                           <xmpG:yellow>44.000000</xmpG:yellow>
                           <xmpG:black>58.999997</xmpG:black>
                        </rdf:li>
                        <rdf:li rdf:parseType="Resource">
                           <xmpG:swatchName>C=99 M=91 Y=19 K=9</xmpG:swatchName>
                           <xmpG:type>PROCESS</xmpG:type>
                           <xmpG:tint>100.000000</xmpG:tint>
                           <xmpG:mode>CMYK</xmpG:mode>
                           <xmpG:cyan>99.000001</xmpG:cyan>
                           <xmpG:magenta>91.000003</xmpG:magenta>
                           <xmpG:yellow>19.000000</xmpG:yellow>
                           <xmpG:black>9.000000</xmpG:black>
                        </rdf:li>
                        <rdf:li rdf:parseType="Resource">
                           <xmpG:swatchName>C=95 M=80 Y=1 K=0</xmpG:swatchName>
                           <xmpG:type>PROCESS</xmpG:type>
                           <xmpG:tint>100.000000</xmpG:tint>
                           <xmpG:mode>CMYK</xmpG:mode>
                           <xmpG:cyan>94.999999</xmpG:cyan>
                           <xmpG:magenta>80.000001</xmpG:magenta>
                           <xmpG:yellow>1.000000</xmpG:yellow>
                           <xmpG:black>0.000000</xmpG:black>
                        </rdf:li>
                        <rdf:li rdf:parseType="Resource">
                           <xmpG:swatchName>C=51 M=34 Y=12 K=0</xmpG:swatchName>
                           <xmpG:type>PROCESS</xmpG:type>
                           <xmpG:tint>100.000000</xmpG:tint>
                           <xmpG:mode>CMYK</xmpG:mode>
                           <xmpG:cyan>50.999999</xmpG:cyan>
                           <xmpG:magenta>34.000000</xmpG:magenta>
                           <xmpG:yellow>12.000000</xmpG:yellow>
                           <xmpG:black>0.000000</xmpG:black>
                        </rdf:li>
                        <rdf:li rdf:parseType="Resource">
                           <xmpG:swatchName>C=31 M=18 Y=8 K=0</xmpG:swatchName>
                           <xmpG:type>PROCESS</xmpG:type>
                           <xmpG:tint>100.000000</xmpG:tint>
                           <xmpG:mode>CMYK</xmpG:mode>
                           <xmpG:cyan>31.000000</xmpG:cyan>
                           <xmpG:magenta>18.000001</xmpG:magenta>
                           <xmpG:yellow>8.000000</xmpG:yellow>
                           <xmpG:black>0.000000</xmpG:black>
                        </rdf:li>
                        <rdf:li rdf:parseType="Resource">
                           <xmpG:swatchName>C=19 M=9 Y=3 K=0</xmpG:swatchName>
                           <xmpG:type>PROCESS</xmpG:type>
                           <xmpG:tint>100.000000</xmpG:tint>
                           <xmpG:mode>CMYK</xmpG:mode>
                           <xmpG:cyan>19.000000</xmpG:cyan>
                           <xmpG:magenta>9.000000</xmpG:magenta>
                           <xmpG:yellow>3.000000</xmpG:yellow>
                           <xmpG:black>0.000000</xmpG:black>
                        </rdf:li>
                        <rdf:li rdf:parseType="Resource">
                           <xmpG:swatchName>C=44 M=59 Y=100 K=36</xmpG:swatchName>
                           <xmpG:type>PROCESS</xmpG:type>
                           <xmpG:tint>100.000000</xmpG:tint>
                           <xmpG:mode>CMYK</xmpG:mode>
                           <xmpG:cyan>44.000000</xmpG:cyan>
                           <xmpG:magenta>58.999997</xmpG:magenta>
                           <xmpG:yellow>100.000000</xmpG:yellow>
                           <xmpG:black>36.000001</xmpG:black>
                        </rdf:li>
                        <rdf:li rdf:parseType="Resource">
                           <xmpG:swatchName>C=21 M=20 Y=37 K=0</xmpG:swatchName>
                           <xmpG:type>PROCESS</xmpG:type>
                           <xmpG:tint>100.000000</xmpG:tint>
                           <xmpG:mode>CMYK</xmpG:mode>
                           <xmpG:cyan>20.999999</xmpG:cyan>
                           <xmpG:magenta>20.000000</xmpG:magenta>
                           <xmpG:yellow>37.000000</xmpG:yellow>
                           <xmpG:black>0.000000</xmpG:black>
                        </rdf:li>
                        <rdf:li rdf:parseType="Resource">
                           <xmpG:swatchName>C=35 M=36 Y=53 K=1</xmpG:swatchName>
                           <xmpG:type>PROCESS</xmpG:type>
                           <xmpG:tint>100.000000</xmpG:tint>
                           <xmpG:mode>CMYK</xmpG:mode>
                           <xmpG:cyan>34.999999</xmpG:cyan>
                           <xmpG:magenta>36.000001</xmpG:magenta>
                           <xmpG:yellow>52.999997</xmpG:yellow>
                           <xmpG:black>1.000000</xmpG:black>
                        </rdf:li>
                        <rdf:li rdf:parseType="Resource">
                           <xmpG:swatchName>C=22 M=42 Y=98 K=2</xmpG:swatchName>
                           <xmpG:type>PROCESS</xmpG:type>
                           <xmpG:tint>100.000000</xmpG:tint>
                           <xmpG:mode>CMYK</xmpG:mode>
                           <xmpG:cyan>22.000000</xmpG:cyan>
                           <xmpG:magenta>41.999999</xmpG:magenta>
                           <xmpG:yellow>98.000002</xmpG:yellow>
                           <xmpG:black>2.000000</xmpG:black>
                        </rdf:li>
                        <rdf:li rdf:parseType="Resource">
                           <xmpG:swatchName>C=7 M=31 Y=94 K=0</xmpG:swatchName>
                           <xmpG:type>PROCESS</xmpG:type>
                           <xmpG:tint>100.000000</xmpG:tint>
                           <xmpG:mode>CMYK</xmpG:mode>
                           <xmpG:cyan>7.000000</xmpG:cyan>
                           <xmpG:magenta>31.000000</xmpG:magenta>
                           <xmpG:yellow>94.000000</xmpG:yellow>
                           <xmpG:black>0.000000</xmpG:black>
                        </rdf:li>
                     </rdf:Seq>
                  </xmpG:Colorants>
               </rdf:li>
               <rdf:li rdf:parseType="Resource">
                  <xmpG:groupName>Graustufen</xmpG:groupName>
                  <xmpG:groupType>1</xmpG:groupType>
                  <xmpG:Colorants>
                     <rdf:Seq>
                        <rdf:li rdf:parseType="Resource">
                           <xmpG:swatchName>R=0 G=0 B=0</xmpG:swatchName>
                           <xmpG:mode>CMYK</xmpG:mode>
                           <xmpG:type>PROCESS</xmpG:type>
                           <xmpG:cyan>85.964751</xmpG:cyan>
                           <xmpG:magenta>85.015637</xmpG:magenta>
                           <xmpG:yellow>78.905922</xmpG:yellow>
                           <xmpG:black>100.000000</xmpG:black>
                        </rdf:li>
                        <rdf:li rdf:parseType="Resource">
                           <xmpG:swatchName>R=26 G=26 B=26</xmpG:swatchName>
                           <xmpG:mode>CMYK</xmpG:mode>
                           <xmpG:type>PROCESS</xmpG:type>
                           <xmpG:cyan>76.418704</xmpG:cyan>
                           <xmpG:magenta>71.090251</xmpG:magenta>
                           <xmpG:yellow>66.726172</xmpG:yellow>
                           <xmpG:black>81.795985</xmpG:black>
                        </rdf:li>
                        <rdf:li rdf:parseType="Resource">
                           <xmpG:swatchName>R=51 G=51 B=51</xmpG:swatchName>
                           <xmpG:mode>CMYK</xmpG:mode>
                           <xmpG:type>PROCESS</xmpG:type>
                           <xmpG:cyan>71.975279</xmpG:cyan>
                           <xmpG:magenta>64.275575</xmpG:magenta>
                           <xmpG:yellow>60.354006</xmpG:yellow>
                           <xmpG:black>58.391696</xmpG:black>
                        </rdf:li>
                        <rdf:li rdf:parseType="Resource">
                           <xmpG:swatchName>R=77 G=77 B=77</xmpG:swatchName>
                           <xmpG:mode>CMYK</xmpG:mode>
                           <xmpG:type>PROCESS</xmpG:type>
                           <xmpG:cyan>67.125958</xmpG:cyan>
                           <xmpG:magenta>58.501559</xmpG:magenta>
                           <xmpG:yellow>54.579991</xmpG:yellow>
                           <xmpG:black>37.146562</xmpG:black>
                        </rdf:li>
                        <rdf:li rdf:parseType="Resource">
                           <xmpG:swatchName>R=102 G=102 B=102</xmpG:swatchName>
                           <xmpG:mode>CMYK</xmpG:mode>
                           <xmpG:type>PROCESS</xmpG:type>
                           <xmpG:cyan>61.629659</xmpG:cyan>
                           <xmpG:magenta>52.184325</xmpG:magenta>
                           <xmpG:yellow>48.633555</xmpG:yellow>
                           <xmpG:black>19.812313</xmpG:black>
                        </rdf:li>
                        <rdf:li rdf:parseType="Resource">
                           <xmpG:swatchName>R=128 G=128 B=128</xmpG:swatchName>
                           <xmpG:mode>CMYK</xmpG:mode>
                           <xmpG:type>PROCESS</xmpG:type>
                           <xmpG:cyan>54.518956</xmpG:cyan>
                           <xmpG:magenta>45.026320</xmpG:magenta>
                           <xmpG:yellow>41.654077</xmpG:yellow>
                           <xmpG:black>6.836042</xmpG:black>
                        </rdf:li>
                        <rdf:li rdf:parseType="Resource">
                           <xmpG:swatchName>R=153 G=153 B=153</xmpG:swatchName>
                           <xmpG:mode>CMYK</xmpG:mode>
                           <xmpG:type>PROCESS</xmpG:type>
                           <xmpG:cyan>46.588844</xmpG:cyan>
                           <xmpG:magenta>37.033644</xmpG:magenta>
                           <xmpG:yellow>34.570840</xmpG:yellow>
                           <xmpG:black>0.671397</xmpG:black>
                        </rdf:li>
                        <rdf:li rdf:parseType="Resource">
                           <xmpG:swatchName>R=179 G=179 B=179</xmpG:swatchName>
                           <xmpG:mode>CMYK</xmpG:mode>
                           <xmpG:type>PROCESS</xmpG:type>
                           <xmpG:cyan>34.872967</xmpG:cyan>
                           <xmpG:magenta>27.084762</xmpG:magenta>
                           <xmpG:yellow>25.201800</xmpG:yellow>
                           <xmpG:black>0.000000</xmpG:black>
                        </rdf:li>
                        <rdf:li rdf:parseType="Resource">
                           <xmpG:swatchName>R=204 G=204 B=204</xmpG:swatchName>
                           <xmpG:mode>CMYK</xmpG:mode>
                           <xmpG:type>PROCESS</xmpG:type>
                           <xmpG:cyan>23.959716</xmpG:cyan>
                           <xmpG:magenta>17.737086</xmpG:magenta>
                           <xmpG:yellow>17.138933</xmpG:yellow>
                           <xmpG:black>0.000000</xmpG:black>
                        </rdf:li>
                        <rdf:li rdf:parseType="Resource">
                           <xmpG:swatchName>R=230 G=230 B=230</xmpG:swatchName>
                           <xmpG:mode>CMYK</xmpG:mode>
                           <xmpG:type>PROCESS</xmpG:type>
                           <xmpG:cyan>12.021057</xmpG:cyan>
                           <xmpG:magenta>8.645762</xmpG:magenta>
                           <xmpG:yellow>8.032349</xmpG:yellow>
                           <xmpG:black>0.000000</xmpG:black>
                        </rdf:li>
                        <rdf:li rdf:parseType="Resource">
                           <xmpG:swatchName>R=242 G=242 B=242</xmpG:swatchName>
                           <xmpG:mode>CMYK</xmpG:mode>
                           <xmpG:type>PROCESS</xmpG:type>
                           <xmpG:cyan>5.835050</xmpG:cyan>
                           <xmpG:magenta>4.141298</xmpG:magenta>
                           <xmpG:yellow>3.961242</xmpG:yellow>
                           <xmpG:black>0.000000</xmpG:black>
                        </rdf:li>
                     </rdf:Seq>
                  </xmpG:Colorants>
               </rdf:li>
            </rdf:Seq>
         </xmpTPg:SwatchGroups>
         <pdf:Producer>Adobe PDF library 15.00</pdf:Producer>
         <photoshop:AuthorsPosition>OpenBikeSensor Logogramm</photoshop:AuthorsPosition>
         <photoshop:CaptionWriter>Franziska Köppe | madiko</photoshop:CaptionWriter>
         <xmpRights:Marked>True</xmpRights:Marked>
         <xmpRights:WebStatement>https://openbikesensor.org</xmpRights:WebStatement>
      </rdf:Description>
   </rdf:RDF>
</x:xmpmeta>
                                                                                                    
                                                                                                    
                                                                                                    
                                                                                                    
                                                                                                    
                                                                                                    
                                                                                                    
                                                                                                    
                                                                                                    
                                                                                                    
                                                                                                    
                                                                                                    
                                                                                                    
                                                                                                    
                                                                                                    
                                                                                                    
                                                                                                    
                                                                                                    
                                                                                                    
                                                                                                    
                           
<?xpacket end="w"?>
	</metadata>
<g id="Black_on_White" class="st0">
	<g id="Hintergrund">
		<rect x="-8.5" y="-8.5" class="st1" width="612.28" height="612.28"/>
		<circle class="st2" cx="297.64" cy="297.64" r="294.09"/>
	</g>
	<g id="Logo" class="st3">
		<path class="st4" d="M210.93,217.34c-23.13,0-40.05,20.94-40.05,67.78v24.31c0,46.39,16.93,67.78,40.05,67.78
			c23.11,0,40.04-21.39,40.04-67.78v-24.31C250.97,238.28,234.04,217.34,210.93,217.34z M226.52,309.43
			c0,25.45-5.44,36.7-15.59,36.7c-10.17,0-15.61-11.25-15.61-36.7v-24.31c0-25.45,5.44-36.7,15.61-36.7
			c10.16,0,15.59,11.25,15.59,36.7V309.43z"/>
		<path class="st4" d="M328.27,293.22c7.05-7.2,11.62-16.43,11.62-32.43c0-28.37-13.99-41.19-37.99-41.19h-35.47v155.34h38.7
			c27.1,0,37.99-19.82,37.99-44.58C343.13,311.23,337.55,300.2,328.27,293.22z M290.87,250.44h8.1c13.39,0,16.48,5.41,16.48,14.63
			c0,9-4.4,13.74-14.27,13.74h-10.31V250.44z M302.51,343.88h-11.64v-34h9.87c12.36,0,17.96,4.28,17.96,16.9
			C318.7,338.25,313.4,343.88,302.51,343.88z"/>
		<path class="st4" d="M397.62,281.96c-12.81-5.62-18.11-10.8-18.11-20.03c0-7.89,3.53-13.51,11.62-13.51
			c9.12,0,14.14,3.82,18.11,14.18l18.11-19.82c-7.22-17.11-20.31-25.45-36.52-25.45c-24.73,0-35.77,19.14-35.77,44.82
			c0,24.98,8.84,39.39,29.45,49.52c15.01,7.43,19.14,11.94,19.14,20.94c0,7.43-3.68,13.51-13.11,13.51
			c-9.14,0-15.31-4.27-20.31-13.96l-18.26,19.59c9.57,18.47,22.08,25.45,40.62,25.45c23.11,0,35.48-18.24,35.48-46.39
			C428.09,304.25,419.7,291.65,397.62,281.96z"/>
		<polygon class="st4" points="511.52,278.99 448.16,278.99 448.16,309.97 511.52,309.97 511.52,346.83 542.5,346.83 542.5,242.13 
			511.52,242.13 		"/>
		<polygon class="st4" points="83.31,309.97 146.68,309.97 146.68,278.99 83.31,278.99 83.31,242.13 52.34,242.13 52.34,346.83 
			83.31,346.83 		"/>
	</g>
</g>
<g id="White_on_Black" class="st0">
	<g id="Hintergrund_1_">
		<rect x="-8.5" y="-8.5" class="st5" width="612.28" height="612.28"/>
		<circle class="st6" cx="297.64" cy="297.64" r="294.09"/>
	</g>
	<g id="Logo_1_" class="st3">
		<path class="st2" d="M210.93,217.34c-23.13,0-40.05,20.94-40.05,67.78v24.31c0,46.39,16.93,67.78,40.05,67.78
			c23.11,0,40.04-21.39,40.04-67.78v-24.31C250.97,238.28,234.04,217.34,210.93,217.34z M226.52,309.43
			c0,25.45-5.44,36.7-15.59,36.7c-10.17,0-15.61-11.25-15.61-36.7v-24.31c0-25.45,5.44-36.7,15.61-36.7
			c10.16,0,15.59,11.25,15.59,36.7V309.43z"/>
		<path class="st2" d="M328.27,293.22c7.05-7.2,11.62-16.43,11.62-32.43c0-28.37-13.99-41.19-37.99-41.19h-35.47v155.34h38.7
			c27.1,0,37.99-19.82,37.99-44.58C343.13,311.23,337.55,300.2,328.27,293.22z M290.87,250.44h8.1c13.39,0,16.48,5.41,16.48,14.63
			c0,9-4.4,13.74-14.27,13.74h-10.31V250.44z M302.51,343.88h-11.64v-34h9.87c12.36,0,17.96,4.28,17.96,16.9
			C318.7,338.25,313.4,343.88,302.51,343.88z"/>
		<path class="st2" d="M397.62,281.96c-12.81-5.62-18.11-10.8-18.11-20.03c0-7.89,3.53-13.51,11.62-13.51
			c9.12,0,14.14,3.82,18.11,14.18l18.11-19.82c-7.22-17.11-20.31-25.45-36.52-25.45c-24.73,0-35.77,19.14-35.77,44.82
			c0,24.98,8.84,39.39,29.45,49.52c15.01,7.43,19.14,11.94,19.14,20.94c0,7.43-3.68,13.51-13.11,13.51
			c-9.14,0-15.31-4.27-20.31-13.96l-18.26,19.59c9.57,18.47,22.08,25.45,40.62,25.45c23.11,0,35.48-18.24,35.48-46.39
			C428.09,304.25,419.7,291.65,397.62,281.96z"/>
		<polygon class="st2" points="511.52,278.99 448.16,278.99 448.16,309.97 511.52,309.97 511.52,346.83 542.5,346.83 542.5,242.13 
			511.52,242.13 		"/>
		<polygon class="st2" points="83.31,309.97 146.68,309.97 146.68,278.99 83.31,278.99 83.31,242.13 52.34,242.13 52.34,346.83 
			83.31,346.83 		"/>
	</g>
</g>
<g id="Dark_Blue_on_Beige" class="st0">
	<g id="Hintergrund_3_" class="st3">
		<rect x="-8.5" y="-8.5" class="st7" width="612.28" height="612.28"/>
		<circle class="st8" cx="297.64" cy="297.64" r="294.09"/>
	</g>
	<g id="Logo_2_" class="st3">
		<path class="st9" d="M210.93,217.34c-23.13,0-40.05,20.94-40.05,67.78v24.31c0,46.39,16.93,67.78,40.05,67.78
			c23.11,0,40.04-21.39,40.04-67.78v-24.31C250.97,238.28,234.04,217.34,210.93,217.34z M226.52,309.43
			c0,25.45-5.44,36.7-15.59,36.7c-10.17,0-15.61-11.25-15.61-36.7v-24.31c0-25.45,5.44-36.7,15.61-36.7
			c10.16,0,15.59,11.25,15.59,36.7V309.43z"/>
		<path class="st9" d="M328.27,293.22c7.05-7.2,11.62-16.43,11.62-32.43c0-28.37-13.99-41.19-37.99-41.19h-35.47v155.34h38.7
			c27.1,0,37.99-19.82,37.99-44.58C343.13,311.23,337.55,300.2,328.27,293.22z M290.87,250.44h8.1c13.39,0,16.48,5.41,16.48,14.63
			c0,9-4.4,13.74-14.27,13.74h-10.31V250.44z M302.51,343.88h-11.64v-34h9.87c12.36,0,17.96,4.28,17.96,16.9
			C318.7,338.25,313.4,343.88,302.51,343.88z"/>
		<path class="st9" d="M397.62,281.96c-12.81-5.62-18.11-10.8-18.11-20.03c0-7.89,3.53-13.51,11.62-13.51
			c9.12,0,14.14,3.82,18.11,14.18l18.11-19.82c-7.22-17.11-20.31-25.45-36.52-25.45c-24.73,0-35.77,19.14-35.77,44.82
			c0,24.98,8.84,39.39,29.45,49.52c15.01,7.43,19.14,11.94,19.14,20.94c0,7.43-3.68,13.51-13.11,13.51
			c-9.14,0-15.31-4.27-20.31-13.96l-18.26,19.59c9.57,18.47,22.08,25.45,40.62,25.45c23.11,0,35.48-18.24,35.48-46.39
			C428.09,304.25,419.7,291.65,397.62,281.96z"/>
		<polygon class="st9" points="511.52,278.99 448.16,278.99 448.16,309.97 511.52,309.97 511.52,346.83 542.5,346.83 542.5,242.13 
			511.52,242.13 		"/>
		<polygon class="st9" points="83.31,309.97 146.68,309.97 146.68,278.99 83.31,278.99 83.31,242.13 52.34,242.13 52.34,346.83 
			83.31,346.83 		"/>
	</g>
</g>
<g id="White_on_Blue" class="st0">
	<g id="Hintergrund_2_" class="st3">
		<rect x="-8.5" y="-8.5" class="st10" width="612.28" height="612.28"/>
		<circle class="st11" cx="297.64" cy="297.64" r="294.09"/>
	</g>
	<g id="Logo_3_" class="st3">
		<path class="st2" d="M210.93,217.34c-23.13,0-40.05,20.94-40.05,67.78v24.31c0,46.39,16.93,67.78,40.05,67.78
			c23.11,0,40.04-21.39,40.04-67.78v-24.31C250.97,238.28,234.04,217.34,210.93,217.34z M226.52,309.43
			c0,25.45-5.44,36.7-15.59,36.7c-10.17,0-15.61-11.25-15.61-36.7v-24.31c0-25.45,5.44-36.7,15.61-36.7
			c10.16,0,15.59,11.25,15.59,36.7V309.43z"/>
		<path class="st2" d="M328.27,293.22c7.05-7.2,11.62-16.43,11.62-32.43c0-28.37-13.99-41.19-37.99-41.19h-35.47v155.34h38.7
			c27.1,0,37.99-19.82,37.99-44.58C343.13,311.23,337.55,300.2,328.27,293.22z M290.87,250.44h8.1c13.39,0,16.48,5.41,16.48,14.63
			c0,9-4.4,13.74-14.27,13.74h-10.31V250.44z M302.51,343.88h-11.64v-34h9.87c12.36,0,17.96,4.28,17.96,16.9
			C318.7,338.25,313.4,343.88,302.51,343.88z"/>
		<path class="st2" d="M397.62,281.96c-12.81-5.62-18.11-10.8-18.11-20.03c0-7.89,3.53-13.51,11.62-13.51
			c9.12,0,14.14,3.82,18.11,14.18l18.11-19.82c-7.22-17.11-20.31-25.45-36.52-25.45c-24.73,0-35.77,19.14-35.77,44.82
			c0,24.98,8.84,39.39,29.45,49.52c15.01,7.43,19.14,11.94,19.14,20.94c0,7.43-3.68,13.51-13.11,13.51
			c-9.14,0-15.31-4.27-20.31-13.96l-18.26,19.59c9.57,18.47,22.08,25.45,40.62,25.45c23.11,0,35.48-18.24,35.48-46.39
			C428.09,304.25,419.7,291.65,397.62,281.96z"/>
		<polygon class="st2" points="511.52,278.99 448.16,278.99 448.16,309.97 511.52,309.97 511.52,346.83 542.5,346.83 542.5,242.13 
			511.52,242.13 		"/>
		<polygon class="st2" points="83.31,309.97 146.68,309.97 146.68,278.99 83.31,278.99 83.31,242.13 52.34,242.13 52.34,346.83 
			83.31,346.83 		"/>
	</g>
</g>
<g id="Blau_auf_Weiß">
	<g id="Hintergrund_4_" class="st0">
		<rect x="-8.5" y="-8.5" class="st1" width="612.28" height="612.28"/>
		<circle class="st2" cx="297.64" cy="297.64" r="294.09"/>
	</g>
	<g id="Logo_4_">
		<path class="st10" d="M210.93,217.34c-23.13,0-40.05,20.94-40.05,67.78v24.31c0,46.39,16.93,67.78,40.05,67.78
			c23.11,0,40.04-21.39,40.04-67.78v-24.31C250.97,238.28,234.04,217.34,210.93,217.34z M226.52,309.43
			c0,25.45-5.44,36.7-15.59,36.7c-10.17,0-15.61-11.25-15.61-36.7v-24.31c0-25.45,5.44-36.7,15.61-36.7
			c10.16,0,15.59,11.25,15.59,36.7V309.43z"/>
		<path class="st10" d="M328.27,293.22c7.05-7.2,11.62-16.43,11.62-32.43c0-28.37-13.99-41.19-37.99-41.19h-35.47v155.34h38.7
			c27.1,0,37.99-19.82,37.99-44.58C343.13,311.23,337.55,300.2,328.27,293.22z M290.87,250.44h8.1c13.39,0,16.48,5.41,16.48,14.63
			c0,9-4.4,13.74-14.27,13.74h-10.31V250.44z M302.51,343.88h-11.64v-34h9.87c12.36,0,17.96,4.28,17.96,16.9
			C318.7,338.25,313.4,343.88,302.51,343.88z"/>
		<path class="st10" d="M397.62,281.96c-12.81-5.62-18.11-10.8-18.11-20.03c0-7.89,3.53-13.51,11.62-13.51
			c9.12,0,14.14,3.82,18.11,14.18l18.11-19.82c-7.22-17.11-20.31-25.45-36.52-25.45c-24.73,0-35.77,19.14-35.77,44.82
			c0,24.98,8.84,39.39,29.45,49.52c15.01,7.43,19.14,11.94,19.14,20.94c0,7.43-3.68,13.51-13.11,13.51
			c-9.14,0-15.31-4.27-20.31-13.96l-18.26,19.59c9.57,18.47,22.08,25.45,40.62,25.45c23.11,0,35.48-18.24,35.48-46.39
			C428.09,304.25,419.7,291.65,397.62,281.96z"/>
		<polygon class="st10" points="511.52,278.99 448.16,278.99 448.16,309.97 511.52,309.97 511.52,346.83 542.5,346.83 542.5,242.13 
			511.52,242.13 		"/>
		<polygon class="st10" points="83.31,309.97 146.68,309.97 146.68,278.99 83.31,278.99 83.31,242.13 52.34,242.13 52.34,346.83 
			83.31,346.83 		"/>
	</g>
</g>
<g id="Ebene_4" class="st0">
</g>
<g id="Kreis" class="st0">
	<circle class="st12" cx="297.64" cy="297.64" r="294.8"/>
</g>
</svg>
