<svg xmlns="http://www.w3.org/2000/svg" viewBox="0 0 490.16 159.87">
  <defs>
    <style>
      .cls-1 {
        fill: #2d4294;
      }
    </style>
  </defs>
  <g id="Ebene_2" data-name="Ebene 2">
    <g id="Blau_auf_Weiß" data-name="Blau auf Weiß">
      <g id="Logo">
        <path class="cls-1" d="M158.59,0c-23.12,0-40,20.94-40,67.78V92.09c0,46.39,16.93,67.78,40.05,67.78s40-21.39,40-67.78V67.78C198.63,20.94,181.71,0,158.59,0Zm15.6,92.09c0,25.45-5.44,36.7-15.6,36.7S143,117.54,143,92.09V67.78c0-25.45,5.43-36.7,15.6-36.7s15.6,11.25,15.6,36.7Z"/>
        <path class="cls-1" d="M275.94,75.88c7.05-7.2,11.62-16.43,11.62-32.43,0-28.37-14-41.19-38-41.19H214.1V157.6h38.71c27.1,0,38-19.81,38-44.57C290.79,93.89,285.21,82.86,275.94,75.88ZM238.53,33.1h8.11c13.39,0,16.47,5.41,16.47,14.64,0,9-4.4,13.73-14.27,13.73H238.53Zm11.64,93.44H238.53v-34h9.88c12.35,0,18,4.28,18,16.89C266.36,120.91,261.06,126.54,250.17,126.54Z"/>
        <path class="cls-1" d="M345.29,64.62c-12.81-5.62-18.11-10.8-18.11-20,0-7.89,3.53-13.51,11.62-13.51,9.12,0,14.14,3.82,18.11,14.19L375,25.45C367.8,8.34,354.71,0,338.5,0c-24.73,0-35.77,19.14-35.77,44.82,0,25,8.84,39.39,29.45,49.52,15,7.42,19.14,11.93,19.14,20.94,0,7.42-3.68,13.51-13.1,13.51-9.14,0-15.31-4.27-20.31-14l-18.26,19.59c9.57,18.47,22.08,25.45,40.62,25.45,23.11,0,35.48-18.25,35.48-46.39C375.75,86.91,367.37,74.31,345.29,64.62Z"/>
        <polygon class="cls-1" points="459.19 61.65 395.82 61.65 395.82 92.62 459.19 92.62 459.19 129.49 490.16 129.49 490.16 24.79 459.19 24.79 459.19 61.65"/>
        <polygon class="cls-1" points="30.98 92.62 94.34 92.62 94.34 61.65 30.98 61.65 30.98 24.79 0 24.79 0 129.49 30.98 129.49 30.98 92.62"/>
      </g>
    </g>
  </g>
</svg>
