<svg id="Black_on_White" data-name="Black on White" xmlns="http://www.w3.org/2000/svg" viewBox="0 0 413.04 413.26">
  <defs>
    <style>
      .cls-1 {
        fill: #1c1c1b;
      }
    </style>
  </defs>
  <g id="Logogramm">
    <polygon class="cls-1" points="27.53 72.4 126.6 72.4 126.6 48.17 27.53 48.17 27.53 18.95 3.31 18.95 3.31 101.63 27.53 101.63 27.53 72.4"/>
    <path class="cls-1" d="M267.79,217.25c18.25,0,31.61-16.89,31.61-53.52v-19.2c0-37-13.36-53.52-31.61-53.52s-31.63,16.54-31.63,53.52v19.2C236.16,200.36,249.52,217.25,267.79,217.25Zm-12.33-72.72c0-20.09,4.3-29,12.33-29s12.31,8.89,12.31,29v19.2c0,20.09-4.29,29-12.31,29s-12.33-8.89-12.33-29Z" transform="translate(-91.12 -91.01)"/>
    <path class="cls-1" d="M330.91,174h10.93c18.61,0,30.34-14.23,30.34-41.42,0-27.38-11.85-39.82-30.34-39.82H311.62V215.46h19.29Zm0-56.71h7.44c10.12,0,14.54,5.33,14.54,15.29,0,12.27-4.42,16.89-14.54,16.89h-7.44Z" transform="translate(-91.12 -91.01)"/>
    <polygon class="cls-1" points="339.91 99.92 308.52 99.92 308.52 73.25 336.42 73.25 336.42 48.72 308.52 48.72 308.52 26.32 339.91 26.32 339.91 1.79 289.23 1.79 289.23 124.45 339.91 124.45 339.91 99.92"/>
    <polygon class="cls-1" points="394.91 70.59 365.15 1.79 349.81 1.79 349.81 124.45 367.94 124.45 367.94 56.54 397.47 124.45 413.04 124.45 413.04 1.79 394.91 1.79 394.91 70.59"/>
    <polygon class="cls-1" points="388.56 192.23 249.49 192.23 249.49 216.69 388.56 216.69 388.56 245.8 413.01 245.8 413.01 163.12 388.56 163.12 388.56 192.23"/>
    <path class="cls-1" d="M143.39,294.44c5.58-5.69,9.19-13,9.19-25.61,0-22.4-11.05-32.52-30-32.52h-28V359h30.57c21.39,0,30-15.63,30-35.2C155.13,308.66,150.72,300,143.39,294.44Zm-29.53-33.78h6.4c10.58,0,13,4.27,13,11.56,0,7.1-3.49,10.84-11.28,10.84h-8.14Zm9.19,73.78h-9.19V307.59h7.79c9.77,0,14.18,3.39,14.18,13.35C135.83,330,131.65,334.44,123.05,334.44Z" transform="translate(-91.12 -91.01)"/>
    <rect class="cls-1" x="75.66" y="145.3" width="19.29" height="122.67"/>
    <polygon class="cls-1" points="153.66 267.96 176.68 267.96 148.78 194.89 172.49 145.3 150.07 145.3 129.37 190.81 129.37 145.3 110.08 145.3 110.08 267.96 129.37 267.96 129.37 235.44 136.34 220.85 153.66 267.96"/>
    <polygon class="cls-1" points="236.1 169.83 236.1 145.3 185.42 145.3 185.42 267.96 236.1 267.96 236.1 243.43 204.71 243.43 204.71 216.76 232.61 216.76 232.61 192.23 204.71 192.23 204.71 169.83 236.1 169.83"/>
    <path class="cls-1" d="M127.15,429.06c-10.11-4.44-14.3-8.54-14.3-15.82,0-6.22,2.79-10.67,9.18-10.67,7.21,0,11.16,3,14.3,11.2l14.3-15.65c-5.69-13.51-16-20.08-28.83-20.08-19.52,0-28.25,15.11-28.25,35.37,0,19.75,7,31.12,23.26,39.12,11.85,5.87,15.11,9.43,15.11,16.54,0,5.86-2.91,10.66-10.35,10.66-7.21,0-12.09-3.38-16-11L91.12,484.18c7.55,14.57,17.43,20.09,32.08,20.09,18.25,0,28-14.4,28-36.62C151.21,446.66,144.59,436.7,127.15,429.06Z" transform="translate(-91.12 -91.01)"/>
    <polygon class="cls-1" points="70.58 411.48 121.26 411.48 121.26 386.95 89.87 386.95 89.87 360.28 117.77 360.28 117.77 335.74 89.87 335.74 89.87 313.34 121.26 313.34 121.26 288.8 70.58 288.8 70.58 411.48"/>
    <polygon class="cls-1" points="176.26 357.61 146.5 288.8 131.16 288.8 131.16 411.48 149.29 411.48 149.29 343.56 178.82 411.48 194.39 411.48 194.39 288.8 176.26 288.8 176.26 357.61"/>
    <path class="cls-1" d="M332,429.06c-10.11-4.44-14.3-8.54-14.3-15.82,0-6.22,2.79-10.67,9.18-10.67,7.2,0,11.16,3,14.3,11.2l14.3-15.65c-5.7-13.51-16-20.08-28.84-20.08-19.53,0-28.24,15.11-28.24,35.37,0,19.75,7,31.12,23.25,39.12,11.85,5.87,15.12,9.43,15.12,16.54,0,5.86-2.91,10.66-10.35,10.66-7.22,0-12.09-3.38-16-11L296,484.18c7.56,14.57,17.43,20.09,32.08,20.09,18.25,0,28-14.4,28-36.62C356.09,446.66,349.46,436.7,332,429.06Z" transform="translate(-91.12 -91.01)"/>
    <path class="cls-1" d="M396.45,378c-18.27,0-31.63,16.53-31.63,53.51v19.21c0,36.62,13.36,53.51,31.63,53.51s31.61-16.89,31.61-53.51V431.55C428.06,394.57,414.7,378,396.45,378Zm12.31,72.72c0,20.08-4.29,29-12.31,29s-12.33-8.89-12.33-29V431.55c0-20.09,4.29-29,12.33-29s12.31,8.89,12.31,29Z" transform="translate(-91.12 -91.01)"/>
    <path class="cls-1" d="M500.84,418.39c0-25.6-11.85-38.58-30.34-38.58H440.28V502.49h19.29v-46.4h10l13.37,46.4h21.15l-16-51.56C496.19,445.24,500.84,434.4,500.84,418.39Zm-32.67,13.16h-8.6v-27.2h8.6c7.8,0,13.38,2.31,13.38,14C481.55,430,476,431.55,468.17,431.55Z" transform="translate(-91.12 -91.01)"/>
  </g>
</svg>
